<mxfile host="app.diagrams.net" agent="Mozilla/5.0 (Windows NT 10.0; Win64; x64) AppleWebKit/537.36 (KHTML, like Gecko) Chrome/138.0.0.0 Safari/537.36" version="28.0.5">
  <diagram id="R2lEEEUBdFMjLlhIrx00" name="Page-1">
    <mxGraphModel dx="1577" dy="598" grid="1" gridSize="10" guides="1" tooltips="1" connect="1" arrows="1" fold="1" page="1" pageScale="1" pageWidth="850" pageHeight="1100" math="0" shadow="0" extFonts="Permanent Marker^https://fonts.googleapis.com/css?family=Permanent+Marker">
      <root>
        <mxCell id="0" />
        <mxCell id="1" parent="0" />
        <mxCell id="_leg18_b8WGHA4jAs8E_-1" value="location" style="swimlane;fontStyle=0;childLayout=stackLayout;horizontal=1;startSize=26;fillColor=default;horizontalStack=0;resizeParent=1;resizeLast=0;collapsible=1;marginBottom=0;swimlaneFillColor=default;align=center;" vertex="1" parent="1">
          <mxGeometry x="40" y="40" width="140" height="104" as="geometry" />
        </mxCell>
        <mxCell id="_leg18_b8WGHA4jAs8E_-2" value="building" style="shape=partialRectangle;top=0;left=0;right=0;bottom=0;align=left;verticalAlign=top;spacingTop=-2;fillColor=none;spacingLeft=64;spacingRight=4;overflow=hidden;rotatable=0;points=[[0,0.5],[1,0.5]];portConstraint=eastwest;dropTarget=0;" vertex="1" parent="_leg18_b8WGHA4jAs8E_-1">
          <mxGeometry y="26" width="140" height="26" as="geometry" />
        </mxCell>
        <mxCell id="_leg18_b8WGHA4jAs8E_-3" value="" style="shape=partialRectangle;top=0;left=0;bottom=0;fillColor=none;align=left;verticalAlign=middle;spacingLeft=4;spacingRight=4;overflow=hidden;rotatable=180;points=[];portConstraint=eastwest;part=1;" vertex="1" connectable="0" parent="_leg18_b8WGHA4jAs8E_-2">
          <mxGeometry width="54" height="26" as="geometry" />
        </mxCell>
        <mxCell id="_leg18_b8WGHA4jAs8E_-4" value="room_no" style="shape=partialRectangle;top=0;left=0;right=0;bottom=0;align=left;verticalAlign=top;spacingTop=-2;fillColor=none;spacingLeft=64;spacingRight=4;overflow=hidden;rotatable=0;points=[[0,0.5],[1,0.5]];portConstraint=eastwest;dropTarget=0;" vertex="1" parent="_leg18_b8WGHA4jAs8E_-1">
          <mxGeometry y="52" width="140" height="26" as="geometry" />
        </mxCell>
        <mxCell id="_leg18_b8WGHA4jAs8E_-5" value="" style="shape=partialRectangle;top=0;left=0;bottom=0;fillColor=none;align=left;verticalAlign=middle;spacingLeft=4;spacingRight=4;overflow=hidden;rotatable=180;points=[];portConstraint=eastwest;part=1;" vertex="1" connectable="0" parent="_leg18_b8WGHA4jAs8E_-4">
          <mxGeometry width="54" height="26" as="geometry" />
        </mxCell>
        <mxCell id="_leg18_b8WGHA4jAs8E_-6" value="floor" style="shape=partialRectangle;top=0;left=0;right=0;bottom=0;align=left;verticalAlign=top;spacingTop=-2;fillColor=none;spacingLeft=64;spacingRight=4;overflow=hidden;rotatable=0;points=[[0,0.5],[1,0.5]];portConstraint=eastwest;dropTarget=0;" vertex="1" parent="_leg18_b8WGHA4jAs8E_-1">
          <mxGeometry y="78" width="140" height="26" as="geometry" />
        </mxCell>
        <mxCell id="_leg18_b8WGHA4jAs8E_-7" value="" style="shape=partialRectangle;top=0;left=0;bottom=0;fillColor=none;align=left;verticalAlign=middle;spacingLeft=4;spacingRight=4;overflow=hidden;rotatable=180;points=[];portConstraint=eastwest;part=1;" vertex="1" connectable="0" parent="_leg18_b8WGHA4jAs8E_-6">
          <mxGeometry width="54" height="26" as="geometry" />
        </mxCell>
        <mxCell id="_leg18_b8WGHA4jAs8E_-8" value="faculty" style="swimlane;fontStyle=0;childLayout=stackLayout;horizontal=1;startSize=26;fillColor=default;horizontalStack=0;resizeParent=1;resizeLast=0;collapsible=1;marginBottom=0;swimlaneFillColor=default;align=center;" vertex="1" parent="1">
          <mxGeometry x="220" y="40" width="260" height="468" as="geometry" />
        </mxCell>
        <mxCell id="_leg18_b8WGHA4jAs8E_-9" value="faculty_id | classes(advisor_id)" style="shape=partialRectangle;top=0;left=0;right=0;bottom=0;align=left;verticalAlign=top;spacingTop=-2;fillColor=none;spacingLeft=64;spacingRight=4;overflow=hidden;rotatable=0;points=[[0,0.5],[1,0.5]];portConstraint=eastwest;dropTarget=0;" vertex="1" parent="_leg18_b8WGHA4jAs8E_-8">
          <mxGeometry y="26" width="260" height="26" as="geometry" />
        </mxCell>
        <mxCell id="_leg18_b8WGHA4jAs8E_-10" value="FK" style="shape=partialRectangle;top=0;left=0;bottom=0;fillColor=none;align=left;verticalAlign=middle;spacingLeft=4;spacingRight=4;overflow=hidden;rotatable=180;points=[];portConstraint=eastwest;part=1;" vertex="1" connectable="0" parent="_leg18_b8WGHA4jAs8E_-9">
          <mxGeometry width="54" height="26" as="geometry" />
        </mxCell>
        <mxCell id="_leg18_b8WGHA4jAs8E_-11" value="email" style="shape=partialRectangle;top=0;left=0;right=0;bottom=0;align=left;verticalAlign=top;spacingTop=-2;fillColor=none;spacingLeft=64;spacingRight=4;overflow=hidden;rotatable=0;points=[[0,0.5],[1,0.5]];portConstraint=eastwest;dropTarget=0;" vertex="1" parent="_leg18_b8WGHA4jAs8E_-8">
          <mxGeometry y="52" width="260" height="26" as="geometry" />
        </mxCell>
        <mxCell id="_leg18_b8WGHA4jAs8E_-12" value="" style="shape=partialRectangle;top=0;left=0;bottom=0;fillColor=none;align=left;verticalAlign=middle;spacingLeft=4;spacingRight=4;overflow=hidden;rotatable=180;points=[];portConstraint=eastwest;part=1;" vertex="1" connectable="0" parent="_leg18_b8WGHA4jAs8E_-11">
          <mxGeometry width="54" height="26" as="geometry" />
        </mxCell>
        <mxCell id="_leg18_b8WGHA4jAs8E_-13" value="password_hash" style="shape=partialRectangle;top=0;left=0;right=0;bottom=0;align=left;verticalAlign=top;spacingTop=-2;fillColor=none;spacingLeft=64;spacingRight=4;overflow=hidden;rotatable=0;points=[[0,0.5],[1,0.5]];portConstraint=eastwest;dropTarget=0;" vertex="1" parent="_leg18_b8WGHA4jAs8E_-8">
          <mxGeometry y="78" width="260" height="26" as="geometry" />
        </mxCell>
        <mxCell id="_leg18_b8WGHA4jAs8E_-14" value="" style="shape=partialRectangle;top=0;left=0;bottom=0;fillColor=none;align=left;verticalAlign=middle;spacingLeft=4;spacingRight=4;overflow=hidden;rotatable=180;points=[];portConstraint=eastwest;part=1;" vertex="1" connectable="0" parent="_leg18_b8WGHA4jAs8E_-13">
          <mxGeometry width="54" height="26" as="geometry" />
        </mxCell>
        <mxCell id="_leg18_b8WGHA4jAs8E_-15" value="first_name" style="shape=partialRectangle;top=0;left=0;right=0;bottom=0;align=left;verticalAlign=top;spacingTop=-2;fillColor=none;spacingLeft=64;spacingRight=4;overflow=hidden;rotatable=0;points=[[0,0.5],[1,0.5]];portConstraint=eastwest;dropTarget=0;" vertex="1" parent="_leg18_b8WGHA4jAs8E_-8">
          <mxGeometry y="104" width="260" height="26" as="geometry" />
        </mxCell>
        <mxCell id="_leg18_b8WGHA4jAs8E_-16" value="" style="shape=partialRectangle;top=0;left=0;bottom=0;fillColor=none;align=left;verticalAlign=middle;spacingLeft=4;spacingRight=4;overflow=hidden;rotatable=180;points=[];portConstraint=eastwest;part=1;" vertex="1" connectable="0" parent="_leg18_b8WGHA4jAs8E_-15">
          <mxGeometry width="54" height="26" as="geometry" />
        </mxCell>
        <mxCell id="_leg18_b8WGHA4jAs8E_-17" value="last_name" style="shape=partialRectangle;top=0;left=0;right=0;bottom=0;align=left;verticalAlign=top;spacingTop=-2;fillColor=none;spacingLeft=64;spacingRight=4;overflow=hidden;rotatable=0;points=[[0,0.5],[1,0.5]];portConstraint=eastwest;dropTarget=0;" vertex="1" parent="_leg18_b8WGHA4jAs8E_-8">
          <mxGeometry y="130" width="260" height="26" as="geometry" />
        </mxCell>
        <mxCell id="_leg18_b8WGHA4jAs8E_-18" value="" style="shape=partialRectangle;top=0;left=0;bottom=0;fillColor=none;align=left;verticalAlign=middle;spacingLeft=4;spacingRight=4;overflow=hidden;rotatable=180;points=[];portConstraint=eastwest;part=1;" vertex="1" connectable="0" parent="_leg18_b8WGHA4jAs8E_-17">
          <mxGeometry width="54" height="26" as="geometry" />
        </mxCell>
        <mxCell id="_leg18_b8WGHA4jAs8E_-19" value="phone" style="shape=partialRectangle;top=0;left=0;right=0;bottom=0;align=left;verticalAlign=top;spacingTop=-2;fillColor=none;spacingLeft=64;spacingRight=4;overflow=hidden;rotatable=0;points=[[0,0.5],[1,0.5]];portConstraint=eastwest;dropTarget=0;" vertex="1" parent="_leg18_b8WGHA4jAs8E_-8">
          <mxGeometry y="156" width="260" height="26" as="geometry" />
        </mxCell>
        <mxCell id="_leg18_b8WGHA4jAs8E_-20" value="" style="shape=partialRectangle;top=0;left=0;bottom=0;fillColor=none;align=left;verticalAlign=middle;spacingLeft=4;spacingRight=4;overflow=hidden;rotatable=180;points=[];portConstraint=eastwest;part=1;" vertex="1" connectable="0" parent="_leg18_b8WGHA4jAs8E_-19">
          <mxGeometry width="54" height="26" as="geometry" />
        </mxCell>
        <mxCell id="_leg18_b8WGHA4jAs8E_-21" value="faculty_role" style="shape=partialRectangle;top=0;left=0;right=0;bottom=0;align=left;verticalAlign=top;spacingTop=-2;fillColor=none;spacingLeft=64;spacingRight=4;overflow=hidden;rotatable=0;points=[[0,0.5],[1,0.5]];portConstraint=eastwest;dropTarget=0;" vertex="1" parent="_leg18_b8WGHA4jAs8E_-8">
          <mxGeometry y="182" width="260" height="26" as="geometry" />
        </mxCell>
        <mxCell id="_leg18_b8WGHA4jAs8E_-22" value="" style="shape=partialRectangle;top=0;left=0;bottom=0;fillColor=none;align=left;verticalAlign=middle;spacingLeft=4;spacingRight=4;overflow=hidden;rotatable=180;points=[];portConstraint=eastwest;part=1;" vertex="1" connectable="0" parent="_leg18_b8WGHA4jAs8E_-21">
          <mxGeometry width="54" height="26" as="geometry" />
        </mxCell>
        <mxCell id="_leg18_b8WGHA4jAs8E_-23" value="specialization" style="shape=partialRectangle;top=0;left=0;right=0;bottom=0;align=left;verticalAlign=top;spacingTop=-2;fillColor=none;spacingLeft=64;spacingRight=4;overflow=hidden;rotatable=0;points=[[0,0.5],[1,0.5]];portConstraint=eastwest;dropTarget=0;" vertex="1" parent="_leg18_b8WGHA4jAs8E_-8">
          <mxGeometry y="208" width="260" height="26" as="geometry" />
        </mxCell>
        <mxCell id="_leg18_b8WGHA4jAs8E_-24" value="" style="shape=partialRectangle;top=0;left=0;bottom=0;fillColor=none;align=left;verticalAlign=middle;spacingLeft=4;spacingRight=4;overflow=hidden;rotatable=180;points=[];portConstraint=eastwest;part=1;" vertex="1" connectable="0" parent="_leg18_b8WGHA4jAs8E_-23">
          <mxGeometry width="54" height="26" as="geometry" />
        </mxCell>
        <mxCell id="_leg18_b8WGHA4jAs8E_-25" value="qualifications" style="shape=partialRectangle;top=0;left=0;right=0;bottom=0;align=left;verticalAlign=top;spacingTop=-2;fillColor=none;spacingLeft=64;spacingRight=4;overflow=hidden;rotatable=0;points=[[0,0.5],[1,0.5]];portConstraint=eastwest;dropTarget=0;" vertex="1" parent="_leg18_b8WGHA4jAs8E_-8">
          <mxGeometry y="234" width="260" height="26" as="geometry" />
        </mxCell>
        <mxCell id="_leg18_b8WGHA4jAs8E_-26" value="" style="shape=partialRectangle;top=0;left=0;bottom=0;fillColor=none;align=left;verticalAlign=middle;spacingLeft=4;spacingRight=4;overflow=hidden;rotatable=180;points=[];portConstraint=eastwest;part=1;" vertex="1" connectable="0" parent="_leg18_b8WGHA4jAs8E_-25">
          <mxGeometry width="54" height="26" as="geometry" />
        </mxCell>
        <mxCell id="_leg18_b8WGHA4jAs8E_-27" value="experience_years" style="shape=partialRectangle;top=0;left=0;right=0;bottom=0;align=left;verticalAlign=top;spacingTop=-2;fillColor=none;spacingLeft=64;spacingRight=4;overflow=hidden;rotatable=0;points=[[0,0.5],[1,0.5]];portConstraint=eastwest;dropTarget=0;" vertex="1" parent="_leg18_b8WGHA4jAs8E_-8">
          <mxGeometry y="260" width="260" height="26" as="geometry" />
        </mxCell>
        <mxCell id="_leg18_b8WGHA4jAs8E_-28" value="" style="shape=partialRectangle;top=0;left=0;bottom=0;fillColor=none;align=left;verticalAlign=middle;spacingLeft=4;spacingRight=4;overflow=hidden;rotatable=180;points=[];portConstraint=eastwest;part=1;" vertex="1" connectable="0" parent="_leg18_b8WGHA4jAs8E_-27">
          <mxGeometry width="54" height="26" as="geometry" />
        </mxCell>
        <mxCell id="_leg18_b8WGHA4jAs8E_-29" value="admission_date" style="shape=partialRectangle;top=0;left=0;right=0;bottom=0;align=left;verticalAlign=top;spacingTop=-2;fillColor=none;spacingLeft=64;spacingRight=4;overflow=hidden;rotatable=0;points=[[0,0.5],[1,0.5]];portConstraint=eastwest;dropTarget=0;" vertex="1" parent="_leg18_b8WGHA4jAs8E_-8">
          <mxGeometry y="286" width="260" height="26" as="geometry" />
        </mxCell>
        <mxCell id="_leg18_b8WGHA4jAs8E_-30" value="" style="shape=partialRectangle;top=0;left=0;bottom=0;fillColor=none;align=left;verticalAlign=middle;spacingLeft=4;spacingRight=4;overflow=hidden;rotatable=180;points=[];portConstraint=eastwest;part=1;" vertex="1" connectable="0" parent="_leg18_b8WGHA4jAs8E_-29">
          <mxGeometry width="54" height="26" as="geometry" />
        </mxCell>
        <mxCell id="_leg18_b8WGHA4jAs8E_-31" value="is_active" style="shape=partialRectangle;top=0;left=0;right=0;bottom=0;align=left;verticalAlign=top;spacingTop=-2;fillColor=none;spacingLeft=64;spacingRight=4;overflow=hidden;rotatable=0;points=[[0,0.5],[1,0.5]];portConstraint=eastwest;dropTarget=0;" vertex="1" parent="_leg18_b8WGHA4jAs8E_-8">
          <mxGeometry y="312" width="260" height="26" as="geometry" />
        </mxCell>
        <mxCell id="_leg18_b8WGHA4jAs8E_-32" value="" style="shape=partialRectangle;top=0;left=0;bottom=0;fillColor=none;align=left;verticalAlign=middle;spacingLeft=4;spacingRight=4;overflow=hidden;rotatable=180;points=[];portConstraint=eastwest;part=1;" vertex="1" connectable="0" parent="_leg18_b8WGHA4jAs8E_-31">
          <mxGeometry width="54" height="26" as="geometry" />
        </mxCell>
        <mxCell id="_leg18_b8WGHA4jAs8E_-33" value="email_verified" style="shape=partialRectangle;top=0;left=0;right=0;bottom=0;align=left;verticalAlign=top;spacingTop=-2;fillColor=none;spacingLeft=64;spacingRight=4;overflow=hidden;rotatable=0;points=[[0,0.5],[1,0.5]];portConstraint=eastwest;dropTarget=0;" vertex="1" parent="_leg18_b8WGHA4jAs8E_-8">
          <mxGeometry y="338" width="260" height="26" as="geometry" />
        </mxCell>
        <mxCell id="_leg18_b8WGHA4jAs8E_-34" value="" style="shape=partialRectangle;top=0;left=0;bottom=0;fillColor=none;align=left;verticalAlign=middle;spacingLeft=4;spacingRight=4;overflow=hidden;rotatable=180;points=[];portConstraint=eastwest;part=1;" vertex="1" connectable="0" parent="_leg18_b8WGHA4jAs8E_-33">
          <mxGeometry width="54" height="26" as="geometry" />
        </mxCell>
        <mxCell id="_leg18_b8WGHA4jAs8E_-35" value="last_login" style="shape=partialRectangle;top=0;left=0;right=0;bottom=0;align=left;verticalAlign=top;spacingTop=-2;fillColor=none;spacingLeft=64;spacingRight=4;overflow=hidden;rotatable=0;points=[[0,0.5],[1,0.5]];portConstraint=eastwest;dropTarget=0;" vertex="1" parent="_leg18_b8WGHA4jAs8E_-8">
          <mxGeometry y="364" width="260" height="26" as="geometry" />
        </mxCell>
        <mxCell id="_leg18_b8WGHA4jAs8E_-36" value="" style="shape=partialRectangle;top=0;left=0;bottom=0;fillColor=none;align=left;verticalAlign=middle;spacingLeft=4;spacingRight=4;overflow=hidden;rotatable=180;points=[];portConstraint=eastwest;part=1;" vertex="1" connectable="0" parent="_leg18_b8WGHA4jAs8E_-35">
          <mxGeometry width="54" height="26" as="geometry" />
        </mxCell>
        <mxCell id="_leg18_b8WGHA4jAs8E_-37" value="INDEX" style="shape=partialRectangle;top=0;left=0;right=0;bottom=0;align=left;verticalAlign=top;spacingTop=-2;fillColor=none;spacingLeft=64;spacingRight=4;overflow=hidden;rotatable=0;points=[[0,0.5],[1,0.5]];portConstraint=eastwest;dropTarget=0;" vertex="1" parent="_leg18_b8WGHA4jAs8E_-8">
          <mxGeometry y="390" width="260" height="26" as="geometry" />
        </mxCell>
        <mxCell id="_leg18_b8WGHA4jAs8E_-38" value="" style="shape=partialRectangle;top=0;left=0;bottom=0;fillColor=none;align=left;verticalAlign=middle;spacingLeft=4;spacingRight=4;overflow=hidden;rotatable=180;points=[];portConstraint=eastwest;part=1;" vertex="1" connectable="0" parent="_leg18_b8WGHA4jAs8E_-37">
          <mxGeometry width="54" height="26" as="geometry" />
        </mxCell>
        <mxCell id="_leg18_b8WGHA4jAs8E_-39" value="INDEX" style="shape=partialRectangle;top=0;left=0;right=0;bottom=0;align=left;verticalAlign=top;spacingTop=-2;fillColor=none;spacingLeft=64;spacingRight=4;overflow=hidden;rotatable=0;points=[[0,0.5],[1,0.5]];portConstraint=eastwest;dropTarget=0;" vertex="1" parent="_leg18_b8WGHA4jAs8E_-8">
          <mxGeometry y="416" width="260" height="26" as="geometry" />
        </mxCell>
        <mxCell id="_leg18_b8WGHA4jAs8E_-40" value="" style="shape=partialRectangle;top=0;left=0;bottom=0;fillColor=none;align=left;verticalAlign=middle;spacingLeft=4;spacingRight=4;overflow=hidden;rotatable=180;points=[];portConstraint=eastwest;part=1;" vertex="1" connectable="0" parent="_leg18_b8WGHA4jAs8E_-39">
          <mxGeometry width="54" height="26" as="geometry" />
        </mxCell>
        <mxCell id="_leg18_b8WGHA4jAs8E_-41" value="INDEX" style="shape=partialRectangle;top=0;left=0;right=0;bottom=0;align=left;verticalAlign=top;spacingTop=-2;fillColor=none;spacingLeft=64;spacingRight=4;overflow=hidden;rotatable=0;points=[[0,0.5],[1,0.5]];portConstraint=eastwest;dropTarget=0;" vertex="1" parent="_leg18_b8WGHA4jAs8E_-8">
          <mxGeometry y="442" width="260" height="26" as="geometry" />
        </mxCell>
        <mxCell id="_leg18_b8WGHA4jAs8E_-42" value="" style="shape=partialRectangle;top=0;left=0;bottom=0;fillColor=none;align=left;verticalAlign=middle;spacingLeft=4;spacingRight=4;overflow=hidden;rotatable=180;points=[];portConstraint=eastwest;part=1;" vertex="1" connectable="0" parent="_leg18_b8WGHA4jAs8E_-41">
          <mxGeometry width="54" height="26" as="geometry" />
        </mxCell>
        <mxCell id="_leg18_b8WGHA4jAs8E_-43" value="students" style="swimlane;fontStyle=0;childLayout=stackLayout;horizontal=1;startSize=26;fillColor=default;horizontalStack=0;resizeParent=1;resizeLast=0;collapsible=1;marginBottom=0;swimlaneFillColor=default;align=center;" vertex="1" parent="1">
          <mxGeometry x="520" y="40" width="290" height="442" as="geometry" />
        </mxCell>
        <mxCell id="_leg18_b8WGHA4jAs8E_-44" value="roll_number | classes(cr_student_id)" style="shape=partialRectangle;top=0;left=0;right=0;bottom=0;align=left;verticalAlign=top;spacingTop=-2;fillColor=none;spacingLeft=64;spacingRight=4;overflow=hidden;rotatable=0;points=[[0,0.5],[1,0.5]];portConstraint=eastwest;dropTarget=0;" vertex="1" parent="_leg18_b8WGHA4jAs8E_-43">
          <mxGeometry y="26" width="290" height="26" as="geometry" />
        </mxCell>
        <mxCell id="_leg18_b8WGHA4jAs8E_-45" value="FK" style="shape=partialRectangle;top=0;left=0;bottom=0;fillColor=none;align=left;verticalAlign=middle;spacingLeft=4;spacingRight=4;overflow=hidden;rotatable=180;points=[];portConstraint=eastwest;part=1;" vertex="1" connectable="0" parent="_leg18_b8WGHA4jAs8E_-44">
          <mxGeometry width="54" height="26" as="geometry" />
        </mxCell>
        <mxCell id="_leg18_b8WGHA4jAs8E_-46" value="email" style="shape=partialRectangle;top=0;left=0;right=0;bottom=0;align=left;verticalAlign=top;spacingTop=-2;fillColor=none;spacingLeft=64;spacingRight=4;overflow=hidden;rotatable=0;points=[[0,0.5],[1,0.5]];portConstraint=eastwest;dropTarget=0;" vertex="1" parent="_leg18_b8WGHA4jAs8E_-43">
          <mxGeometry y="52" width="290" height="26" as="geometry" />
        </mxCell>
        <mxCell id="_leg18_b8WGHA4jAs8E_-47" value="" style="shape=partialRectangle;top=0;left=0;bottom=0;fillColor=none;align=left;verticalAlign=middle;spacingLeft=4;spacingRight=4;overflow=hidden;rotatable=180;points=[];portConstraint=eastwest;part=1;" vertex="1" connectable="0" parent="_leg18_b8WGHA4jAs8E_-46">
          <mxGeometry width="54" height="26" as="geometry" />
        </mxCell>
        <mxCell id="_leg18_b8WGHA4jAs8E_-48" value="password_hash" style="shape=partialRectangle;top=0;left=0;right=0;bottom=0;align=left;verticalAlign=top;spacingTop=-2;fillColor=none;spacingLeft=64;spacingRight=4;overflow=hidden;rotatable=0;points=[[0,0.5],[1,0.5]];portConstraint=eastwest;dropTarget=0;" vertex="1" parent="_leg18_b8WGHA4jAs8E_-43">
          <mxGeometry y="78" width="290" height="26" as="geometry" />
        </mxCell>
        <mxCell id="_leg18_b8WGHA4jAs8E_-49" value="" style="shape=partialRectangle;top=0;left=0;bottom=0;fillColor=none;align=left;verticalAlign=middle;spacingLeft=4;spacingRight=4;overflow=hidden;rotatable=180;points=[];portConstraint=eastwest;part=1;" vertex="1" connectable="0" parent="_leg18_b8WGHA4jAs8E_-48">
          <mxGeometry width="54" height="26" as="geometry" />
        </mxCell>
        <mxCell id="_leg18_b8WGHA4jAs8E_-50" value="first_name" style="shape=partialRectangle;top=0;left=0;right=0;bottom=0;align=left;verticalAlign=top;spacingTop=-2;fillColor=none;spacingLeft=64;spacingRight=4;overflow=hidden;rotatable=0;points=[[0,0.5],[1,0.5]];portConstraint=eastwest;dropTarget=0;" vertex="1" parent="_leg18_b8WGHA4jAs8E_-43">
          <mxGeometry y="104" width="290" height="26" as="geometry" />
        </mxCell>
        <mxCell id="_leg18_b8WGHA4jAs8E_-51" value="" style="shape=partialRectangle;top=0;left=0;bottom=0;fillColor=none;align=left;verticalAlign=middle;spacingLeft=4;spacingRight=4;overflow=hidden;rotatable=180;points=[];portConstraint=eastwest;part=1;" vertex="1" connectable="0" parent="_leg18_b8WGHA4jAs8E_-50">
          <mxGeometry width="54" height="26" as="geometry" />
        </mxCell>
        <mxCell id="_leg18_b8WGHA4jAs8E_-52" value="last_name" style="shape=partialRectangle;top=0;left=0;right=0;bottom=0;align=left;verticalAlign=top;spacingTop=-2;fillColor=none;spacingLeft=64;spacingRight=4;overflow=hidden;rotatable=0;points=[[0,0.5],[1,0.5]];portConstraint=eastwest;dropTarget=0;" vertex="1" parent="_leg18_b8WGHA4jAs8E_-43">
          <mxGeometry y="130" width="290" height="26" as="geometry" />
        </mxCell>
        <mxCell id="_leg18_b8WGHA4jAs8E_-53" value="" style="shape=partialRectangle;top=0;left=0;bottom=0;fillColor=none;align=left;verticalAlign=middle;spacingLeft=4;spacingRight=4;overflow=hidden;rotatable=180;points=[];portConstraint=eastwest;part=1;" vertex="1" connectable="0" parent="_leg18_b8WGHA4jAs8E_-52">
          <mxGeometry width="54" height="26" as="geometry" />
        </mxCell>
        <mxCell id="_leg18_b8WGHA4jAs8E_-54" value="phone" style="shape=partialRectangle;top=0;left=0;right=0;bottom=0;align=left;verticalAlign=top;spacingTop=-2;fillColor=none;spacingLeft=64;spacingRight=4;overflow=hidden;rotatable=0;points=[[0,0.5],[1,0.5]];portConstraint=eastwest;dropTarget=0;" vertex="1" parent="_leg18_b8WGHA4jAs8E_-43">
          <mxGeometry y="156" width="290" height="26" as="geometry" />
        </mxCell>
        <mxCell id="_leg18_b8WGHA4jAs8E_-55" value="" style="shape=partialRectangle;top=0;left=0;bottom=0;fillColor=none;align=left;verticalAlign=middle;spacingLeft=4;spacingRight=4;overflow=hidden;rotatable=180;points=[];portConstraint=eastwest;part=1;" vertex="1" connectable="0" parent="_leg18_b8WGHA4jAs8E_-54">
          <mxGeometry width="54" height="26" as="geometry" />
        </mxCell>
        <mxCell id="_leg18_b8WGHA4jAs8E_-56" value="class_id | classes(class_id)" style="shape=partialRectangle;top=0;left=0;right=0;bottom=0;align=left;verticalAlign=top;spacingTop=-2;fillColor=none;spacingLeft=64;spacingRight=4;overflow=hidden;rotatable=0;points=[[0,0.5],[1,0.5]];portConstraint=eastwest;dropTarget=0;" vertex="1" parent="_leg18_b8WGHA4jAs8E_-43">
          <mxGeometry y="182" width="290" height="26" as="geometry" />
        </mxCell>
        <mxCell id="_leg18_b8WGHA4jAs8E_-57" value="FK" style="shape=partialRectangle;top=0;left=0;bottom=0;fillColor=none;align=left;verticalAlign=middle;spacingLeft=4;spacingRight=4;overflow=hidden;rotatable=180;points=[];portConstraint=eastwest;part=1;" vertex="1" connectable="0" parent="_leg18_b8WGHA4jAs8E_-56">
          <mxGeometry width="54" height="26" as="geometry" />
        </mxCell>
        <mxCell id="_leg18_b8WGHA4jAs8E_-58" value="admission_year" style="shape=partialRectangle;top=0;left=0;right=0;bottom=0;align=left;verticalAlign=top;spacingTop=-2;fillColor=none;spacingLeft=64;spacingRight=4;overflow=hidden;rotatable=0;points=[[0,0.5],[1,0.5]];portConstraint=eastwest;dropTarget=0;" vertex="1" parent="_leg18_b8WGHA4jAs8E_-43">
          <mxGeometry y="208" width="290" height="26" as="geometry" />
        </mxCell>
        <mxCell id="_leg18_b8WGHA4jAs8E_-59" value="" style="shape=partialRectangle;top=0;left=0;bottom=0;fillColor=none;align=left;verticalAlign=middle;spacingLeft=4;spacingRight=4;overflow=hidden;rotatable=180;points=[];portConstraint=eastwest;part=1;" vertex="1" connectable="0" parent="_leg18_b8WGHA4jAs8E_-58">
          <mxGeometry width="54" height="26" as="geometry" />
        </mxCell>
        <mxCell id="_leg18_b8WGHA4jAs8E_-60" value="cgpa" style="shape=partialRectangle;top=0;left=0;right=0;bottom=0;align=left;verticalAlign=top;spacingTop=-2;fillColor=none;spacingLeft=64;spacingRight=4;overflow=hidden;rotatable=0;points=[[0,0.5],[1,0.5]];portConstraint=eastwest;dropTarget=0;" vertex="1" parent="_leg18_b8WGHA4jAs8E_-43">
          <mxGeometry y="234" width="290" height="26" as="geometry" />
        </mxCell>
        <mxCell id="_leg18_b8WGHA4jAs8E_-61" value="" style="shape=partialRectangle;top=0;left=0;bottom=0;fillColor=none;align=left;verticalAlign=middle;spacingLeft=4;spacingRight=4;overflow=hidden;rotatable=180;points=[];portConstraint=eastwest;part=1;" vertex="1" connectable="0" parent="_leg18_b8WGHA4jAs8E_-60">
          <mxGeometry width="54" height="26" as="geometry" />
        </mxCell>
        <mxCell id="_leg18_b8WGHA4jAs8E_-62" value="is_active" style="shape=partialRectangle;top=0;left=0;right=0;bottom=0;align=left;verticalAlign=top;spacingTop=-2;fillColor=none;spacingLeft=64;spacingRight=4;overflow=hidden;rotatable=0;points=[[0,0.5],[1,0.5]];portConstraint=eastwest;dropTarget=0;" vertex="1" parent="_leg18_b8WGHA4jAs8E_-43">
          <mxGeometry y="260" width="290" height="26" as="geometry" />
        </mxCell>
        <mxCell id="_leg18_b8WGHA4jAs8E_-63" value="" style="shape=partialRectangle;top=0;left=0;bottom=0;fillColor=none;align=left;verticalAlign=middle;spacingLeft=4;spacingRight=4;overflow=hidden;rotatable=180;points=[];portConstraint=eastwest;part=1;" vertex="1" connectable="0" parent="_leg18_b8WGHA4jAs8E_-62">
          <mxGeometry width="54" height="26" as="geometry" />
        </mxCell>
        <mxCell id="_leg18_b8WGHA4jAs8E_-64" value="email_verified" style="shape=partialRectangle;top=0;left=0;right=0;bottom=0;align=left;verticalAlign=top;spacingTop=-2;fillColor=none;spacingLeft=64;spacingRight=4;overflow=hidden;rotatable=0;points=[[0,0.5],[1,0.5]];portConstraint=eastwest;dropTarget=0;" vertex="1" parent="_leg18_b8WGHA4jAs8E_-43">
          <mxGeometry y="286" width="290" height="26" as="geometry" />
        </mxCell>
        <mxCell id="_leg18_b8WGHA4jAs8E_-65" value="" style="shape=partialRectangle;top=0;left=0;bottom=0;fillColor=none;align=left;verticalAlign=middle;spacingLeft=4;spacingRight=4;overflow=hidden;rotatable=180;points=[];portConstraint=eastwest;part=1;" vertex="1" connectable="0" parent="_leg18_b8WGHA4jAs8E_-64">
          <mxGeometry width="54" height="26" as="geometry" />
        </mxCell>
        <mxCell id="_leg18_b8WGHA4jAs8E_-66" value="last_login" style="shape=partialRectangle;top=0;left=0;right=0;bottom=0;align=left;verticalAlign=top;spacingTop=-2;fillColor=none;spacingLeft=64;spacingRight=4;overflow=hidden;rotatable=0;points=[[0,0.5],[1,0.5]];portConstraint=eastwest;dropTarget=0;" vertex="1" parent="_leg18_b8WGHA4jAs8E_-43">
          <mxGeometry y="312" width="290" height="26" as="geometry" />
        </mxCell>
        <mxCell id="_leg18_b8WGHA4jAs8E_-67" value="" style="shape=partialRectangle;top=0;left=0;bottom=0;fillColor=none;align=left;verticalAlign=middle;spacingLeft=4;spacingRight=4;overflow=hidden;rotatable=180;points=[];portConstraint=eastwest;part=1;" vertex="1" connectable="0" parent="_leg18_b8WGHA4jAs8E_-66">
          <mxGeometry width="54" height="26" as="geometry" />
        </mxCell>
        <mxCell id="_leg18_b8WGHA4jAs8E_-68" value="INDEX" style="shape=partialRectangle;top=0;left=0;right=0;bottom=0;align=left;verticalAlign=top;spacingTop=-2;fillColor=none;spacingLeft=64;spacingRight=4;overflow=hidden;rotatable=0;points=[[0,0.5],[1,0.5]];portConstraint=eastwest;dropTarget=0;" vertex="1" parent="_leg18_b8WGHA4jAs8E_-43">
          <mxGeometry y="338" width="290" height="26" as="geometry" />
        </mxCell>
        <mxCell id="_leg18_b8WGHA4jAs8E_-69" value="" style="shape=partialRectangle;top=0;left=0;bottom=0;fillColor=none;align=left;verticalAlign=middle;spacingLeft=4;spacingRight=4;overflow=hidden;rotatable=180;points=[];portConstraint=eastwest;part=1;" vertex="1" connectable="0" parent="_leg18_b8WGHA4jAs8E_-68">
          <mxGeometry width="54" height="26" as="geometry" />
        </mxCell>
        <mxCell id="_leg18_b8WGHA4jAs8E_-70" value="INDEX" style="shape=partialRectangle;top=0;left=0;right=0;bottom=0;align=left;verticalAlign=top;spacingTop=-2;fillColor=none;spacingLeft=64;spacingRight=4;overflow=hidden;rotatable=0;points=[[0,0.5],[1,0.5]];portConstraint=eastwest;dropTarget=0;" vertex="1" parent="_leg18_b8WGHA4jAs8E_-43">
          <mxGeometry y="364" width="290" height="26" as="geometry" />
        </mxCell>
        <mxCell id="_leg18_b8WGHA4jAs8E_-71" value="" style="shape=partialRectangle;top=0;left=0;bottom=0;fillColor=none;align=left;verticalAlign=middle;spacingLeft=4;spacingRight=4;overflow=hidden;rotatable=180;points=[];portConstraint=eastwest;part=1;" vertex="1" connectable="0" parent="_leg18_b8WGHA4jAs8E_-70">
          <mxGeometry width="54" height="26" as="geometry" />
        </mxCell>
        <mxCell id="_leg18_b8WGHA4jAs8E_-72" value="INDEX" style="shape=partialRectangle;top=0;left=0;right=0;bottom=0;align=left;verticalAlign=top;spacingTop=-2;fillColor=none;spacingLeft=64;spacingRight=4;overflow=hidden;rotatable=0;points=[[0,0.5],[1,0.5]];portConstraint=eastwest;dropTarget=0;" vertex="1" parent="_leg18_b8WGHA4jAs8E_-43">
          <mxGeometry y="390" width="290" height="26" as="geometry" />
        </mxCell>
        <mxCell id="_leg18_b8WGHA4jAs8E_-73" value="" style="shape=partialRectangle;top=0;left=0;bottom=0;fillColor=none;align=left;verticalAlign=middle;spacingLeft=4;spacingRight=4;overflow=hidden;rotatable=180;points=[];portConstraint=eastwest;part=1;" vertex="1" connectable="0" parent="_leg18_b8WGHA4jAs8E_-72">
          <mxGeometry width="54" height="26" as="geometry" />
        </mxCell>
        <mxCell id="_leg18_b8WGHA4jAs8E_-74" value="INDEX" style="shape=partialRectangle;top=0;left=0;right=0;bottom=0;align=left;verticalAlign=top;spacingTop=-2;fillColor=none;spacingLeft=64;spacingRight=4;overflow=hidden;rotatable=0;points=[[0,0.5],[1,0.5]];portConstraint=eastwest;dropTarget=0;" vertex="1" parent="_leg18_b8WGHA4jAs8E_-43">
          <mxGeometry y="416" width="290" height="26" as="geometry" />
        </mxCell>
        <mxCell id="_leg18_b8WGHA4jAs8E_-75" value="" style="shape=partialRectangle;top=0;left=0;bottom=0;fillColor=none;align=left;verticalAlign=middle;spacingLeft=4;spacingRight=4;overflow=hidden;rotatable=180;points=[];portConstraint=eastwest;part=1;" vertex="1" connectable="0" parent="_leg18_b8WGHA4jAs8E_-74">
          <mxGeometry width="54" height="26" as="geometry" />
        </mxCell>
        <mxCell id="_leg18_b8WGHA4jAs8E_-76" value="classes" style="swimlane;fontStyle=0;childLayout=stackLayout;horizontal=1;startSize=26;fillColor=default;horizontalStack=0;resizeParent=1;resizeLast=0;collapsible=1;marginBottom=0;swimlaneFillColor=default;align=center;" vertex="1" parent="1">
          <mxGeometry x="850" y="40" width="300" height="494" as="geometry" />
        </mxCell>
        <mxCell id="_leg18_b8WGHA4jAs8E_-77" value="class_id | students(class_id)" style="shape=partialRectangle;top=0;left=0;right=0;bottom=0;align=left;verticalAlign=top;spacingTop=-2;fillColor=none;spacingLeft=64;spacingRight=4;overflow=hidden;rotatable=0;points=[[0,0.5],[1,0.5]];portConstraint=eastwest;dropTarget=0;" vertex="1" parent="_leg18_b8WGHA4jAs8E_-76">
          <mxGeometry y="26" width="300" height="26" as="geometry" />
        </mxCell>
        <mxCell id="_leg18_b8WGHA4jAs8E_-78" value="FK" style="shape=partialRectangle;top=0;left=0;bottom=0;fillColor=none;align=left;verticalAlign=middle;spacingLeft=4;spacingRight=4;overflow=hidden;rotatable=180;points=[];portConstraint=eastwest;part=1;" vertex="1" connectable="0" parent="_leg18_b8WGHA4jAs8E_-77">
          <mxGeometry width="54" height="26" as="geometry" />
        </mxCell>
        <mxCell id="_leg18_b8WGHA4jAs8E_-79" value="class_name" style="shape=partialRectangle;top=0;left=0;right=0;bottom=0;align=left;verticalAlign=top;spacingTop=-2;fillColor=none;spacingLeft=64;spacingRight=4;overflow=hidden;rotatable=0;points=[[0,0.5],[1,0.5]];portConstraint=eastwest;dropTarget=0;" vertex="1" parent="_leg18_b8WGHA4jAs8E_-76">
          <mxGeometry y="52" width="300" height="26" as="geometry" />
        </mxCell>
        <mxCell id="_leg18_b8WGHA4jAs8E_-80" value="" style="shape=partialRectangle;top=0;left=0;bottom=0;fillColor=none;align=left;verticalAlign=middle;spacingLeft=4;spacingRight=4;overflow=hidden;rotatable=180;points=[];portConstraint=eastwest;part=1;" vertex="1" connectable="0" parent="_leg18_b8WGHA4jAs8E_-79">
          <mxGeometry width="54" height="26" as="geometry" />
        </mxCell>
        <mxCell id="_leg18_b8WGHA4jAs8E_-81" value="start_year" style="shape=partialRectangle;top=0;left=0;right=0;bottom=0;align=left;verticalAlign=top;spacingTop=-2;fillColor=none;spacingLeft=64;spacingRight=4;overflow=hidden;rotatable=0;points=[[0,0.5],[1,0.5]];portConstraint=eastwest;dropTarget=0;" vertex="1" parent="_leg18_b8WGHA4jAs8E_-76">
          <mxGeometry y="78" width="300" height="26" as="geometry" />
        </mxCell>
        <mxCell id="_leg18_b8WGHA4jAs8E_-82" value="" style="shape=partialRectangle;top=0;left=0;bottom=0;fillColor=none;align=left;verticalAlign=middle;spacingLeft=4;spacingRight=4;overflow=hidden;rotatable=180;points=[];portConstraint=eastwest;part=1;" vertex="1" connectable="0" parent="_leg18_b8WGHA4jAs8E_-81">
          <mxGeometry width="54" height="26" as="geometry" />
        </mxCell>
        <mxCell id="_leg18_b8WGHA4jAs8E_-83" value="semester" style="shape=partialRectangle;top=0;left=0;right=0;bottom=0;align=left;verticalAlign=top;spacingTop=-2;fillColor=none;spacingLeft=64;spacingRight=4;overflow=hidden;rotatable=0;points=[[0,0.5],[1,0.5]];portConstraint=eastwest;dropTarget=0;" vertex="1" parent="_leg18_b8WGHA4jAs8E_-76">
          <mxGeometry y="104" width="300" height="26" as="geometry" />
        </mxCell>
        <mxCell id="_leg18_b8WGHA4jAs8E_-84" value="" style="shape=partialRectangle;top=0;left=0;bottom=0;fillColor=none;align=left;verticalAlign=middle;spacingLeft=4;spacingRight=4;overflow=hidden;rotatable=180;points=[];portConstraint=eastwest;part=1;" vertex="1" connectable="0" parent="_leg18_b8WGHA4jAs8E_-83">
          <mxGeometry width="54" height="26" as="geometry" />
        </mxCell>
        <mxCell id="_leg18_b8WGHA4jAs8E_-85" value="section" style="shape=partialRectangle;top=0;left=0;right=0;bottom=0;align=left;verticalAlign=top;spacingTop=-2;fillColor=none;spacingLeft=64;spacingRight=4;overflow=hidden;rotatable=0;points=[[0,0.5],[1,0.5]];portConstraint=eastwest;dropTarget=0;" vertex="1" parent="_leg18_b8WGHA4jAs8E_-76">
          <mxGeometry y="130" width="300" height="26" as="geometry" />
        </mxCell>
        <mxCell id="_leg18_b8WGHA4jAs8E_-86" value="" style="shape=partialRectangle;top=0;left=0;bottom=0;fillColor=none;align=left;verticalAlign=middle;spacingLeft=4;spacingRight=4;overflow=hidden;rotatable=180;points=[];portConstraint=eastwest;part=1;" vertex="1" connectable="0" parent="_leg18_b8WGHA4jAs8E_-85">
          <mxGeometry width="54" height="26" as="geometry" />
        </mxCell>
        <mxCell id="_leg18_b8WGHA4jAs8E_-87" value="advisor_id | faculty(faculty_id)" style="shape=partialRectangle;top=0;left=0;right=0;bottom=0;align=left;verticalAlign=top;spacingTop=-2;fillColor=none;spacingLeft=64;spacingRight=4;overflow=hidden;rotatable=0;points=[[0,0.5],[1,0.5]];portConstraint=eastwest;dropTarget=0;" vertex="1" parent="_leg18_b8WGHA4jAs8E_-76">
          <mxGeometry y="156" width="300" height="26" as="geometry" />
        </mxCell>
        <mxCell id="_leg18_b8WGHA4jAs8E_-88" value="FK" style="shape=partialRectangle;top=0;left=0;bottom=0;fillColor=none;align=left;verticalAlign=middle;spacingLeft=4;spacingRight=4;overflow=hidden;rotatable=180;points=[];portConstraint=eastwest;part=1;" vertex="1" connectable="0" parent="_leg18_b8WGHA4jAs8E_-87">
          <mxGeometry width="54" height="26" as="geometry" />
        </mxCell>
        <mxCell id="_leg18_b8WGHA4jAs8E_-89" value="cr_student_id | students(roll_number)" style="shape=partialRectangle;top=0;left=0;right=0;bottom=0;align=left;verticalAlign=top;spacingTop=-2;fillColor=none;spacingLeft=64;spacingRight=4;overflow=hidden;rotatable=0;points=[[0,0.5],[1,0.5]];portConstraint=eastwest;dropTarget=0;" vertex="1" parent="_leg18_b8WGHA4jAs8E_-76">
          <mxGeometry y="182" width="300" height="26" as="geometry" />
        </mxCell>
        <mxCell id="_leg18_b8WGHA4jAs8E_-90" value="FK" style="shape=partialRectangle;top=0;left=0;bottom=0;fillColor=none;align=left;verticalAlign=middle;spacingLeft=4;spacingRight=4;overflow=hidden;rotatable=180;points=[];portConstraint=eastwest;part=1;" vertex="1" connectable="0" parent="_leg18_b8WGHA4jAs8E_-89">
          <mxGeometry width="54" height="26" as="geometry" />
        </mxCell>
        <mxCell id="_leg18_b8WGHA4jAs8E_-91" value="building" style="shape=partialRectangle;top=0;left=0;right=0;bottom=0;align=left;verticalAlign=top;spacingTop=-2;fillColor=none;spacingLeft=64;spacingRight=4;overflow=hidden;rotatable=0;points=[[0,0.5],[1,0.5]];portConstraint=eastwest;dropTarget=0;" vertex="1" parent="_leg18_b8WGHA4jAs8E_-76">
          <mxGeometry y="208" width="300" height="26" as="geometry" />
        </mxCell>
        <mxCell id="_leg18_b8WGHA4jAs8E_-92" value="" style="shape=partialRectangle;top=0;left=0;bottom=0;fillColor=none;align=left;verticalAlign=middle;spacingLeft=4;spacingRight=4;overflow=hidden;rotatable=180;points=[];portConstraint=eastwest;part=1;" vertex="1" connectable="0" parent="_leg18_b8WGHA4jAs8E_-91">
          <mxGeometry width="54" height="26" as="geometry" />
        </mxCell>
        <mxCell id="_leg18_b8WGHA4jAs8E_-93" value="room_no" style="shape=partialRectangle;top=0;left=0;right=0;bottom=0;align=left;verticalAlign=top;spacingTop=-2;fillColor=none;spacingLeft=64;spacingRight=4;overflow=hidden;rotatable=0;points=[[0,0.5],[1,0.5]];portConstraint=eastwest;dropTarget=0;" vertex="1" parent="_leg18_b8WGHA4jAs8E_-76">
          <mxGeometry y="234" width="300" height="26" as="geometry" />
        </mxCell>
        <mxCell id="_leg18_b8WGHA4jAs8E_-94" value="" style="shape=partialRectangle;top=0;left=0;bottom=0;fillColor=none;align=left;verticalAlign=middle;spacingLeft=4;spacingRight=4;overflow=hidden;rotatable=180;points=[];portConstraint=eastwest;part=1;" vertex="1" connectable="0" parent="_leg18_b8WGHA4jAs8E_-93">
          <mxGeometry width="54" height="26" as="geometry" />
        </mxCell>
        <mxCell id="_leg18_b8WGHA4jAs8E_-95" value="current_strength" style="shape=partialRectangle;top=0;left=0;right=0;bottom=0;align=left;verticalAlign=top;spacingTop=-2;fillColor=none;spacingLeft=64;spacingRight=4;overflow=hidden;rotatable=0;points=[[0,0.5],[1,0.5]];portConstraint=eastwest;dropTarget=0;" vertex="1" parent="_leg18_b8WGHA4jAs8E_-76">
          <mxGeometry y="260" width="300" height="26" as="geometry" />
        </mxCell>
        <mxCell id="_leg18_b8WGHA4jAs8E_-96" value="" style="shape=partialRectangle;top=0;left=0;bottom=0;fillColor=none;align=left;verticalAlign=middle;spacingLeft=4;spacingRight=4;overflow=hidden;rotatable=180;points=[];portConstraint=eastwest;part=1;" vertex="1" connectable="0" parent="_leg18_b8WGHA4jAs8E_-95">
          <mxGeometry width="54" height="26" as="geometry" />
        </mxCell>
        <mxCell id="_leg18_b8WGHA4jAs8E_-97" value="is_active" style="shape=partialRectangle;top=0;left=0;right=0;bottom=0;align=left;verticalAlign=top;spacingTop=-2;fillColor=none;spacingLeft=64;spacingRight=4;overflow=hidden;rotatable=0;points=[[0,0.5],[1,0.5]];portConstraint=eastwest;dropTarget=0;" vertex="1" parent="_leg18_b8WGHA4jAs8E_-76">
          <mxGeometry y="286" width="300" height="26" as="geometry" />
        </mxCell>
        <mxCell id="_leg18_b8WGHA4jAs8E_-98" value="" style="shape=partialRectangle;top=0;left=0;bottom=0;fillColor=none;align=left;verticalAlign=middle;spacingLeft=4;spacingRight=4;overflow=hidden;rotatable=180;points=[];portConstraint=eastwest;part=1;" vertex="1" connectable="0" parent="_leg18_b8WGHA4jAs8E_-97">
          <mxGeometry width="54" height="26" as="geometry" />
        </mxCell>
        <mxCell id="_leg18_b8WGHA4jAs8E_-99" value="INDEX" style="shape=partialRectangle;top=0;left=0;right=0;bottom=0;align=left;verticalAlign=top;spacingTop=-2;fillColor=none;spacingLeft=64;spacingRight=4;overflow=hidden;rotatable=0;points=[[0,0.5],[1,0.5]];portConstraint=eastwest;dropTarget=0;" vertex="1" parent="_leg18_b8WGHA4jAs8E_-76">
          <mxGeometry y="312" width="300" height="26" as="geometry" />
        </mxCell>
        <mxCell id="_leg18_b8WGHA4jAs8E_-100" value="" style="shape=partialRectangle;top=0;left=0;bottom=0;fillColor=none;align=left;verticalAlign=middle;spacingLeft=4;spacingRight=4;overflow=hidden;rotatable=180;points=[];portConstraint=eastwest;part=1;" vertex="1" connectable="0" parent="_leg18_b8WGHA4jAs8E_-99">
          <mxGeometry width="54" height="26" as="geometry" />
        </mxCell>
        <mxCell id="_leg18_b8WGHA4jAs8E_-101" value="INDEX" style="shape=partialRectangle;top=0;left=0;right=0;bottom=0;align=left;verticalAlign=top;spacingTop=-2;fillColor=none;spacingLeft=64;spacingRight=4;overflow=hidden;rotatable=0;points=[[0,0.5],[1,0.5]];portConstraint=eastwest;dropTarget=0;" vertex="1" parent="_leg18_b8WGHA4jAs8E_-76">
          <mxGeometry y="338" width="300" height="26" as="geometry" />
        </mxCell>
        <mxCell id="_leg18_b8WGHA4jAs8E_-102" value="" style="shape=partialRectangle;top=0;left=0;bottom=0;fillColor=none;align=left;verticalAlign=middle;spacingLeft=4;spacingRight=4;overflow=hidden;rotatable=180;points=[];portConstraint=eastwest;part=1;" vertex="1" connectable="0" parent="_leg18_b8WGHA4jAs8E_-101">
          <mxGeometry width="54" height="26" as="geometry" />
        </mxCell>
        <mxCell id="_leg18_b8WGHA4jAs8E_-103" value="INDEX" style="shape=partialRectangle;top=0;left=0;right=0;bottom=0;align=left;verticalAlign=top;spacingTop=-2;fillColor=none;spacingLeft=64;spacingRight=4;overflow=hidden;rotatable=0;points=[[0,0.5],[1,0.5]];portConstraint=eastwest;dropTarget=0;" vertex="1" parent="_leg18_b8WGHA4jAs8E_-76">
          <mxGeometry y="364" width="300" height="26" as="geometry" />
        </mxCell>
        <mxCell id="_leg18_b8WGHA4jAs8E_-104" value="" style="shape=partialRectangle;top=0;left=0;bottom=0;fillColor=none;align=left;verticalAlign=middle;spacingLeft=4;spacingRight=4;overflow=hidden;rotatable=180;points=[];portConstraint=eastwest;part=1;" vertex="1" connectable="0" parent="_leg18_b8WGHA4jAs8E_-103">
          <mxGeometry width="54" height="26" as="geometry" />
        </mxCell>
        <mxCell id="_leg18_b8WGHA4jAs8E_-105" value="INDEX" style="shape=partialRectangle;top=0;left=0;right=0;bottom=0;align=left;verticalAlign=top;spacingTop=-2;fillColor=none;spacingLeft=64;spacingRight=4;overflow=hidden;rotatable=0;points=[[0,0.5],[1,0.5]];portConstraint=eastwest;dropTarget=0;" vertex="1" parent="_leg18_b8WGHA4jAs8E_-76">
          <mxGeometry y="390" width="300" height="26" as="geometry" />
        </mxCell>
        <mxCell id="_leg18_b8WGHA4jAs8E_-106" value="" style="shape=partialRectangle;top=0;left=0;bottom=0;fillColor=none;align=left;verticalAlign=middle;spacingLeft=4;spacingRight=4;overflow=hidden;rotatable=180;points=[];portConstraint=eastwest;part=1;" vertex="1" connectable="0" parent="_leg18_b8WGHA4jAs8E_-105">
          <mxGeometry width="54" height="26" as="geometry" />
        </mxCell>
        <mxCell id="_leg18_b8WGHA4jAs8E_-107" value="INDEX" style="shape=partialRectangle;top=0;left=0;right=0;bottom=0;align=left;verticalAlign=top;spacingTop=-2;fillColor=none;spacingLeft=64;spacingRight=4;overflow=hidden;rotatable=0;points=[[0,0.5],[1,0.5]];portConstraint=eastwest;dropTarget=0;" vertex="1" parent="_leg18_b8WGHA4jAs8E_-76">
          <mxGeometry y="416" width="300" height="26" as="geometry" />
        </mxCell>
        <mxCell id="_leg18_b8WGHA4jAs8E_-108" value="" style="shape=partialRectangle;top=0;left=0;bottom=0;fillColor=none;align=left;verticalAlign=middle;spacingLeft=4;spacingRight=4;overflow=hidden;rotatable=180;points=[];portConstraint=eastwest;part=1;" vertex="1" connectable="0" parent="_leg18_b8WGHA4jAs8E_-107">
          <mxGeometry width="54" height="26" as="geometry" />
        </mxCell>
        <mxCell id="_leg18_b8WGHA4jAs8E_-109" value="INDEX" style="shape=partialRectangle;top=0;left=0;right=0;bottom=0;align=left;verticalAlign=top;spacingTop=-2;fillColor=none;spacingLeft=64;spacingRight=4;overflow=hidden;rotatable=0;points=[[0,0.5],[1,0.5]];portConstraint=eastwest;dropTarget=0;" vertex="1" parent="_leg18_b8WGHA4jAs8E_-76">
          <mxGeometry y="442" width="300" height="26" as="geometry" />
        </mxCell>
        <mxCell id="_leg18_b8WGHA4jAs8E_-110" value="" style="shape=partialRectangle;top=0;left=0;bottom=0;fillColor=none;align=left;verticalAlign=middle;spacingLeft=4;spacingRight=4;overflow=hidden;rotatable=180;points=[];portConstraint=eastwest;part=1;" vertex="1" connectable="0" parent="_leg18_b8WGHA4jAs8E_-109">
          <mxGeometry width="54" height="26" as="geometry" />
        </mxCell>
        <mxCell id="_leg18_b8WGHA4jAs8E_-111" value="INDEX" style="shape=partialRectangle;top=0;left=0;right=0;bottom=0;align=left;verticalAlign=top;spacingTop=-2;fillColor=none;spacingLeft=64;spacingRight=4;overflow=hidden;rotatable=0;points=[[0,0.5],[1,0.5]];portConstraint=eastwest;dropTarget=0;" vertex="1" parent="_leg18_b8WGHA4jAs8E_-76">
          <mxGeometry y="468" width="300" height="26" as="geometry" />
        </mxCell>
        <mxCell id="_leg18_b8WGHA4jAs8E_-112" value="" style="shape=partialRectangle;top=0;left=0;bottom=0;fillColor=none;align=left;verticalAlign=middle;spacingLeft=4;spacingRight=4;overflow=hidden;rotatable=180;points=[];portConstraint=eastwest;part=1;" vertex="1" connectable="0" parent="_leg18_b8WGHA4jAs8E_-111">
          <mxGeometry width="54" height="26" as="geometry" />
        </mxCell>
        <mxCell id="_leg18_b8WGHA4jAs8E_-113" value="sessions" style="swimlane;fontStyle=0;childLayout=stackLayout;horizontal=1;startSize=26;fillColor=default;horizontalStack=0;resizeParent=1;resizeLast=0;collapsible=1;marginBottom=0;swimlaneFillColor=default;align=center;" vertex="1" parent="1">
          <mxGeometry x="1190" y="40" width="228" height="416" as="geometry" />
        </mxCell>
        <mxCell id="_leg18_b8WGHA4jAs8E_-114" value="session_id" style="shape=partialRectangle;top=0;left=0;right=0;bottom=0;align=left;verticalAlign=top;spacingTop=-2;fillColor=none;spacingLeft=64;spacingRight=4;overflow=hidden;rotatable=0;points=[[0,0.5],[1,0.5]];portConstraint=eastwest;dropTarget=0;" vertex="1" parent="_leg18_b8WGHA4jAs8E_-113">
          <mxGeometry y="26" width="228" height="26" as="geometry" />
        </mxCell>
        <mxCell id="_leg18_b8WGHA4jAs8E_-115" value="" style="shape=partialRectangle;top=0;left=0;bottom=0;fillColor=none;align=left;verticalAlign=middle;spacingLeft=4;spacingRight=4;overflow=hidden;rotatable=180;points=[];portConstraint=eastwest;part=1;" vertex="1" connectable="0" parent="_leg18_b8WGHA4jAs8E_-114">
          <mxGeometry width="54" height="26" as="geometry" />
        </mxCell>
        <mxCell id="_leg18_b8WGHA4jAs8E_-116" value="user_type" style="shape=partialRectangle;top=0;left=0;right=0;bottom=0;align=left;verticalAlign=top;spacingTop=-2;fillColor=none;spacingLeft=64;spacingRight=4;overflow=hidden;rotatable=0;points=[[0,0.5],[1,0.5]];portConstraint=eastwest;dropTarget=0;" vertex="1" parent="_leg18_b8WGHA4jAs8E_-113">
          <mxGeometry y="52" width="228" height="26" as="geometry" />
        </mxCell>
        <mxCell id="_leg18_b8WGHA4jAs8E_-117" value="" style="shape=partialRectangle;top=0;left=0;bottom=0;fillColor=none;align=left;verticalAlign=middle;spacingLeft=4;spacingRight=4;overflow=hidden;rotatable=180;points=[];portConstraint=eastwest;part=1;" vertex="1" connectable="0" parent="_leg18_b8WGHA4jAs8E_-116">
          <mxGeometry width="54" height="26" as="geometry" />
        </mxCell>
        <mxCell id="_leg18_b8WGHA4jAs8E_-118" value="user_id" style="shape=partialRectangle;top=0;left=0;right=0;bottom=0;align=left;verticalAlign=top;spacingTop=-2;fillColor=none;spacingLeft=64;spacingRight=4;overflow=hidden;rotatable=0;points=[[0,0.5],[1,0.5]];portConstraint=eastwest;dropTarget=0;" vertex="1" parent="_leg18_b8WGHA4jAs8E_-113">
          <mxGeometry y="78" width="228" height="26" as="geometry" />
        </mxCell>
        <mxCell id="_leg18_b8WGHA4jAs8E_-119" value="" style="shape=partialRectangle;top=0;left=0;bottom=0;fillColor=none;align=left;verticalAlign=middle;spacingLeft=4;spacingRight=4;overflow=hidden;rotatable=180;points=[];portConstraint=eastwest;part=1;" vertex="1" connectable="0" parent="_leg18_b8WGHA4jAs8E_-118">
          <mxGeometry width="54" height="26" as="geometry" />
        </mxCell>
        <mxCell id="_leg18_b8WGHA4jAs8E_-120" value="token" style="shape=partialRectangle;top=0;left=0;right=0;bottom=0;align=left;verticalAlign=top;spacingTop=-2;fillColor=none;spacingLeft=64;spacingRight=4;overflow=hidden;rotatable=0;points=[[0,0.5],[1,0.5]];portConstraint=eastwest;dropTarget=0;" vertex="1" parent="_leg18_b8WGHA4jAs8E_-113">
          <mxGeometry y="104" width="228" height="26" as="geometry" />
        </mxCell>
        <mxCell id="_leg18_b8WGHA4jAs8E_-121" value="" style="shape=partialRectangle;top=0;left=0;bottom=0;fillColor=none;align=left;verticalAlign=middle;spacingLeft=4;spacingRight=4;overflow=hidden;rotatable=180;points=[];portConstraint=eastwest;part=1;" vertex="1" connectable="0" parent="_leg18_b8WGHA4jAs8E_-120">
          <mxGeometry width="54" height="26" as="geometry" />
        </mxCell>
        <mxCell id="_leg18_b8WGHA4jAs8E_-122" value="token_type" style="shape=partialRectangle;top=0;left=0;right=0;bottom=0;align=left;verticalAlign=top;spacingTop=-2;fillColor=none;spacingLeft=64;spacingRight=4;overflow=hidden;rotatable=0;points=[[0,0.5],[1,0.5]];portConstraint=eastwest;dropTarget=0;" vertex="1" parent="_leg18_b8WGHA4jAs8E_-113">
          <mxGeometry y="130" width="228" height="26" as="geometry" />
        </mxCell>
        <mxCell id="_leg18_b8WGHA4jAs8E_-123" value="" style="shape=partialRectangle;top=0;left=0;bottom=0;fillColor=none;align=left;verticalAlign=middle;spacingLeft=4;spacingRight=4;overflow=hidden;rotatable=180;points=[];portConstraint=eastwest;part=1;" vertex="1" connectable="0" parent="_leg18_b8WGHA4jAs8E_-122">
          <mxGeometry width="54" height="26" as="geometry" />
        </mxCell>
        <mxCell id="_leg18_b8WGHA4jAs8E_-124" value="device_info" style="shape=partialRectangle;top=0;left=0;right=0;bottom=0;align=left;verticalAlign=top;spacingTop=-2;fillColor=none;spacingLeft=64;spacingRight=4;overflow=hidden;rotatable=0;points=[[0,0.5],[1,0.5]];portConstraint=eastwest;dropTarget=0;" vertex="1" parent="_leg18_b8WGHA4jAs8E_-113">
          <mxGeometry y="156" width="228" height="26" as="geometry" />
        </mxCell>
        <mxCell id="_leg18_b8WGHA4jAs8E_-125" value="" style="shape=partialRectangle;top=0;left=0;bottom=0;fillColor=none;align=left;verticalAlign=middle;spacingLeft=4;spacingRight=4;overflow=hidden;rotatable=180;points=[];portConstraint=eastwest;part=1;" vertex="1" connectable="0" parent="_leg18_b8WGHA4jAs8E_-124">
          <mxGeometry width="54" height="26" as="geometry" />
        </mxCell>
        <mxCell id="_leg18_b8WGHA4jAs8E_-126" value="ip_address" style="shape=partialRectangle;top=0;left=0;right=0;bottom=0;align=left;verticalAlign=top;spacingTop=-2;fillColor=none;spacingLeft=64;spacingRight=4;overflow=hidden;rotatable=0;points=[[0,0.5],[1,0.5]];portConstraint=eastwest;dropTarget=0;" vertex="1" parent="_leg18_b8WGHA4jAs8E_-113">
          <mxGeometry y="182" width="228" height="26" as="geometry" />
        </mxCell>
        <mxCell id="_leg18_b8WGHA4jAs8E_-127" value="" style="shape=partialRectangle;top=0;left=0;bottom=0;fillColor=none;align=left;verticalAlign=middle;spacingLeft=4;spacingRight=4;overflow=hidden;rotatable=180;points=[];portConstraint=eastwest;part=1;" vertex="1" connectable="0" parent="_leg18_b8WGHA4jAs8E_-126">
          <mxGeometry width="54" height="26" as="geometry" />
        </mxCell>
        <mxCell id="_leg18_b8WGHA4jAs8E_-128" value="user_agent" style="shape=partialRectangle;top=0;left=0;right=0;bottom=0;align=left;verticalAlign=top;spacingTop=-2;fillColor=none;spacingLeft=64;spacingRight=4;overflow=hidden;rotatable=0;points=[[0,0.5],[1,0.5]];portConstraint=eastwest;dropTarget=0;" vertex="1" parent="_leg18_b8WGHA4jAs8E_-113">
          <mxGeometry y="208" width="228" height="26" as="geometry" />
        </mxCell>
        <mxCell id="_leg18_b8WGHA4jAs8E_-129" value="" style="shape=partialRectangle;top=0;left=0;bottom=0;fillColor=none;align=left;verticalAlign=middle;spacingLeft=4;spacingRight=4;overflow=hidden;rotatable=180;points=[];portConstraint=eastwest;part=1;" vertex="1" connectable="0" parent="_leg18_b8WGHA4jAs8E_-128">
          <mxGeometry width="54" height="26" as="geometry" />
        </mxCell>
        <mxCell id="_leg18_b8WGHA4jAs8E_-130" value="created_at" style="shape=partialRectangle;top=0;left=0;right=0;bottom=0;align=left;verticalAlign=top;spacingTop=-2;fillColor=none;spacingLeft=64;spacingRight=4;overflow=hidden;rotatable=0;points=[[0,0.5],[1,0.5]];portConstraint=eastwest;dropTarget=0;" vertex="1" parent="_leg18_b8WGHA4jAs8E_-113">
          <mxGeometry y="234" width="228" height="26" as="geometry" />
        </mxCell>
        <mxCell id="_leg18_b8WGHA4jAs8E_-131" value="" style="shape=partialRectangle;top=0;left=0;bottom=0;fillColor=none;align=left;verticalAlign=middle;spacingLeft=4;spacingRight=4;overflow=hidden;rotatable=180;points=[];portConstraint=eastwest;part=1;" vertex="1" connectable="0" parent="_leg18_b8WGHA4jAs8E_-130">
          <mxGeometry width="54" height="26" as="geometry" />
        </mxCell>
        <mxCell id="_leg18_b8WGHA4jAs8E_-132" value="expires_at" style="shape=partialRectangle;top=0;left=0;right=0;bottom=0;align=left;verticalAlign=top;spacingTop=-2;fillColor=none;spacingLeft=64;spacingRight=4;overflow=hidden;rotatable=0;points=[[0,0.5],[1,0.5]];portConstraint=eastwest;dropTarget=0;" vertex="1" parent="_leg18_b8WGHA4jAs8E_-113">
          <mxGeometry y="260" width="228" height="26" as="geometry" />
        </mxCell>
        <mxCell id="_leg18_b8WGHA4jAs8E_-133" value="" style="shape=partialRectangle;top=0;left=0;bottom=0;fillColor=none;align=left;verticalAlign=middle;spacingLeft=4;spacingRight=4;overflow=hidden;rotatable=180;points=[];portConstraint=eastwest;part=1;" vertex="1" connectable="0" parent="_leg18_b8WGHA4jAs8E_-132">
          <mxGeometry width="54" height="26" as="geometry" />
        </mxCell>
        <mxCell id="_leg18_b8WGHA4jAs8E_-134" value="is_active" style="shape=partialRectangle;top=0;left=0;right=0;bottom=0;align=left;verticalAlign=top;spacingTop=-2;fillColor=none;spacingLeft=64;spacingRight=4;overflow=hidden;rotatable=0;points=[[0,0.5],[1,0.5]];portConstraint=eastwest;dropTarget=0;" vertex="1" parent="_leg18_b8WGHA4jAs8E_-113">
          <mxGeometry y="286" width="228" height="26" as="geometry" />
        </mxCell>
        <mxCell id="_leg18_b8WGHA4jAs8E_-135" value="" style="shape=partialRectangle;top=0;left=0;bottom=0;fillColor=none;align=left;verticalAlign=middle;spacingLeft=4;spacingRight=4;overflow=hidden;rotatable=180;points=[];portConstraint=eastwest;part=1;" vertex="1" connectable="0" parent="_leg18_b8WGHA4jAs8E_-134">
          <mxGeometry width="54" height="26" as="geometry" />
        </mxCell>
        <mxCell id="_leg18_b8WGHA4jAs8E_-136" value="INDEX" style="shape=partialRectangle;top=0;left=0;right=0;bottom=0;align=left;verticalAlign=top;spacingTop=-2;fillColor=none;spacingLeft=64;spacingRight=4;overflow=hidden;rotatable=0;points=[[0,0.5],[1,0.5]];portConstraint=eastwest;dropTarget=0;" vertex="1" parent="_leg18_b8WGHA4jAs8E_-113">
          <mxGeometry y="312" width="228" height="26" as="geometry" />
        </mxCell>
        <mxCell id="_leg18_b8WGHA4jAs8E_-137" value="" style="shape=partialRectangle;top=0;left=0;bottom=0;fillColor=none;align=left;verticalAlign=middle;spacingLeft=4;spacingRight=4;overflow=hidden;rotatable=180;points=[];portConstraint=eastwest;part=1;" vertex="1" connectable="0" parent="_leg18_b8WGHA4jAs8E_-136">
          <mxGeometry width="54" height="26" as="geometry" />
        </mxCell>
        <mxCell id="_leg18_b8WGHA4jAs8E_-138" value="INDEX" style="shape=partialRectangle;top=0;left=0;right=0;bottom=0;align=left;verticalAlign=top;spacingTop=-2;fillColor=none;spacingLeft=64;spacingRight=4;overflow=hidden;rotatable=0;points=[[0,0.5],[1,0.5]];portConstraint=eastwest;dropTarget=0;" vertex="1" parent="_leg18_b8WGHA4jAs8E_-113">
          <mxGeometry y="338" width="228" height="26" as="geometry" />
        </mxCell>
        <mxCell id="_leg18_b8WGHA4jAs8E_-139" value="" style="shape=partialRectangle;top=0;left=0;bottom=0;fillColor=none;align=left;verticalAlign=middle;spacingLeft=4;spacingRight=4;overflow=hidden;rotatable=180;points=[];portConstraint=eastwest;part=1;" vertex="1" connectable="0" parent="_leg18_b8WGHA4jAs8E_-138">
          <mxGeometry width="54" height="26" as="geometry" />
        </mxCell>
        <mxCell id="_leg18_b8WGHA4jAs8E_-140" value="INDEX" style="shape=partialRectangle;top=0;left=0;right=0;bottom=0;align=left;verticalAlign=top;spacingTop=-2;fillColor=none;spacingLeft=64;spacingRight=4;overflow=hidden;rotatable=0;points=[[0,0.5],[1,0.5]];portConstraint=eastwest;dropTarget=0;" vertex="1" parent="_leg18_b8WGHA4jAs8E_-113">
          <mxGeometry y="364" width="228" height="26" as="geometry" />
        </mxCell>
        <mxCell id="_leg18_b8WGHA4jAs8E_-141" value="" style="shape=partialRectangle;top=0;left=0;bottom=0;fillColor=none;align=left;verticalAlign=middle;spacingLeft=4;spacingRight=4;overflow=hidden;rotatable=180;points=[];portConstraint=eastwest;part=1;" vertex="1" connectable="0" parent="_leg18_b8WGHA4jAs8E_-140">
          <mxGeometry width="54" height="26" as="geometry" />
        </mxCell>
        <mxCell id="_leg18_b8WGHA4jAs8E_-142" value="INDEX" style="shape=partialRectangle;top=0;left=0;right=0;bottom=0;align=left;verticalAlign=top;spacingTop=-2;fillColor=none;spacingLeft=64;spacingRight=4;overflow=hidden;rotatable=0;points=[[0,0.5],[1,0.5]];portConstraint=eastwest;dropTarget=0;" vertex="1" parent="_leg18_b8WGHA4jAs8E_-113">
          <mxGeometry y="390" width="228" height="26" as="geometry" />
        </mxCell>
        <mxCell id="_leg18_b8WGHA4jAs8E_-143" value="" style="shape=partialRectangle;top=0;left=0;bottom=0;fillColor=none;align=left;verticalAlign=middle;spacingLeft=4;spacingRight=4;overflow=hidden;rotatable=180;points=[];portConstraint=eastwest;part=1;" vertex="1" connectable="0" parent="_leg18_b8WGHA4jAs8E_-142">
          <mxGeometry width="54" height="26" as="geometry" />
        </mxCell>
        <mxCell id="_leg18_b8WGHA4jAs8E_-144" value="password_resets" style="swimlane;fontStyle=0;childLayout=stackLayout;horizontal=1;startSize=26;fillColor=default;horizontalStack=0;resizeParent=1;resizeLast=0;collapsible=1;marginBottom=0;swimlaneFillColor=default;align=center;" vertex="1" parent="1">
          <mxGeometry x="1458" y="40" width="235" height="364" as="geometry" />
        </mxCell>
        <mxCell id="_leg18_b8WGHA4jAs8E_-145" value="reset_id" style="shape=partialRectangle;top=0;left=0;right=0;bottom=0;align=left;verticalAlign=top;spacingTop=-2;fillColor=none;spacingLeft=64;spacingRight=4;overflow=hidden;rotatable=0;points=[[0,0.5],[1,0.5]];portConstraint=eastwest;dropTarget=0;" vertex="1" parent="_leg18_b8WGHA4jAs8E_-144">
          <mxGeometry y="26" width="235" height="26" as="geometry" />
        </mxCell>
        <mxCell id="_leg18_b8WGHA4jAs8E_-146" value="" style="shape=partialRectangle;top=0;left=0;bottom=0;fillColor=none;align=left;verticalAlign=middle;spacingLeft=4;spacingRight=4;overflow=hidden;rotatable=180;points=[];portConstraint=eastwest;part=1;" vertex="1" connectable="0" parent="_leg18_b8WGHA4jAs8E_-145">
          <mxGeometry width="54" height="26" as="geometry" />
        </mxCell>
        <mxCell id="_leg18_b8WGHA4jAs8E_-147" value="user_type" style="shape=partialRectangle;top=0;left=0;right=0;bottom=0;align=left;verticalAlign=top;spacingTop=-2;fillColor=none;spacingLeft=64;spacingRight=4;overflow=hidden;rotatable=0;points=[[0,0.5],[1,0.5]];portConstraint=eastwest;dropTarget=0;" vertex="1" parent="_leg18_b8WGHA4jAs8E_-144">
          <mxGeometry y="52" width="235" height="26" as="geometry" />
        </mxCell>
        <mxCell id="_leg18_b8WGHA4jAs8E_-148" value="" style="shape=partialRectangle;top=0;left=0;bottom=0;fillColor=none;align=left;verticalAlign=middle;spacingLeft=4;spacingRight=4;overflow=hidden;rotatable=180;points=[];portConstraint=eastwest;part=1;" vertex="1" connectable="0" parent="_leg18_b8WGHA4jAs8E_-147">
          <mxGeometry width="54" height="26" as="geometry" />
        </mxCell>
        <mxCell id="_leg18_b8WGHA4jAs8E_-149" value="user_id" style="shape=partialRectangle;top=0;left=0;right=0;bottom=0;align=left;verticalAlign=top;spacingTop=-2;fillColor=none;spacingLeft=64;spacingRight=4;overflow=hidden;rotatable=0;points=[[0,0.5],[1,0.5]];portConstraint=eastwest;dropTarget=0;" vertex="1" parent="_leg18_b8WGHA4jAs8E_-144">
          <mxGeometry y="78" width="235" height="26" as="geometry" />
        </mxCell>
        <mxCell id="_leg18_b8WGHA4jAs8E_-150" value="" style="shape=partialRectangle;top=0;left=0;bottom=0;fillColor=none;align=left;verticalAlign=middle;spacingLeft=4;spacingRight=4;overflow=hidden;rotatable=180;points=[];portConstraint=eastwest;part=1;" vertex="1" connectable="0" parent="_leg18_b8WGHA4jAs8E_-149">
          <mxGeometry width="54" height="26" as="geometry" />
        </mxCell>
        <mxCell id="_leg18_b8WGHA4jAs8E_-151" value="reset_token" style="shape=partialRectangle;top=0;left=0;right=0;bottom=0;align=left;verticalAlign=top;spacingTop=-2;fillColor=none;spacingLeft=64;spacingRight=4;overflow=hidden;rotatable=0;points=[[0,0.5],[1,0.5]];portConstraint=eastwest;dropTarget=0;" vertex="1" parent="_leg18_b8WGHA4jAs8E_-144">
          <mxGeometry y="104" width="235" height="26" as="geometry" />
        </mxCell>
        <mxCell id="_leg18_b8WGHA4jAs8E_-152" value="" style="shape=partialRectangle;top=0;left=0;bottom=0;fillColor=none;align=left;verticalAlign=middle;spacingLeft=4;spacingRight=4;overflow=hidden;rotatable=180;points=[];portConstraint=eastwest;part=1;" vertex="1" connectable="0" parent="_leg18_b8WGHA4jAs8E_-151">
          <mxGeometry width="54" height="26" as="geometry" />
        </mxCell>
        <mxCell id="_leg18_b8WGHA4jAs8E_-153" value="created_at" style="shape=partialRectangle;top=0;left=0;right=0;bottom=0;align=left;verticalAlign=top;spacingTop=-2;fillColor=none;spacingLeft=64;spacingRight=4;overflow=hidden;rotatable=0;points=[[0,0.5],[1,0.5]];portConstraint=eastwest;dropTarget=0;" vertex="1" parent="_leg18_b8WGHA4jAs8E_-144">
          <mxGeometry y="130" width="235" height="26" as="geometry" />
        </mxCell>
        <mxCell id="_leg18_b8WGHA4jAs8E_-154" value="" style="shape=partialRectangle;top=0;left=0;bottom=0;fillColor=none;align=left;verticalAlign=middle;spacingLeft=4;spacingRight=4;overflow=hidden;rotatable=180;points=[];portConstraint=eastwest;part=1;" vertex="1" connectable="0" parent="_leg18_b8WGHA4jAs8E_-153">
          <mxGeometry width="54" height="26" as="geometry" />
        </mxCell>
        <mxCell id="_leg18_b8WGHA4jAs8E_-155" value="expires_at" style="shape=partialRectangle;top=0;left=0;right=0;bottom=0;align=left;verticalAlign=top;spacingTop=-2;fillColor=none;spacingLeft=64;spacingRight=4;overflow=hidden;rotatable=0;points=[[0,0.5],[1,0.5]];portConstraint=eastwest;dropTarget=0;" vertex="1" parent="_leg18_b8WGHA4jAs8E_-144">
          <mxGeometry y="156" width="235" height="26" as="geometry" />
        </mxCell>
        <mxCell id="_leg18_b8WGHA4jAs8E_-156" value="" style="shape=partialRectangle;top=0;left=0;bottom=0;fillColor=none;align=left;verticalAlign=middle;spacingLeft=4;spacingRight=4;overflow=hidden;rotatable=180;points=[];portConstraint=eastwest;part=1;" vertex="1" connectable="0" parent="_leg18_b8WGHA4jAs8E_-155">
          <mxGeometry width="54" height="26" as="geometry" />
        </mxCell>
        <mxCell id="_leg18_b8WGHA4jAs8E_-157" value="is_used" style="shape=partialRectangle;top=0;left=0;right=0;bottom=0;align=left;verticalAlign=top;spacingTop=-2;fillColor=none;spacingLeft=64;spacingRight=4;overflow=hidden;rotatable=0;points=[[0,0.5],[1,0.5]];portConstraint=eastwest;dropTarget=0;" vertex="1" parent="_leg18_b8WGHA4jAs8E_-144">
          <mxGeometry y="182" width="235" height="26" as="geometry" />
        </mxCell>
        <mxCell id="_leg18_b8WGHA4jAs8E_-158" value="" style="shape=partialRectangle;top=0;left=0;bottom=0;fillColor=none;align=left;verticalAlign=middle;spacingLeft=4;spacingRight=4;overflow=hidden;rotatable=180;points=[];portConstraint=eastwest;part=1;" vertex="1" connectable="0" parent="_leg18_b8WGHA4jAs8E_-157">
          <mxGeometry width="54" height="26" as="geometry" />
        </mxCell>
        <mxCell id="_leg18_b8WGHA4jAs8E_-159" value="used_at" style="shape=partialRectangle;top=0;left=0;right=0;bottom=0;align=left;verticalAlign=top;spacingTop=-2;fillColor=none;spacingLeft=64;spacingRight=4;overflow=hidden;rotatable=0;points=[[0,0.5],[1,0.5]];portConstraint=eastwest;dropTarget=0;" vertex="1" parent="_leg18_b8WGHA4jAs8E_-144">
          <mxGeometry y="208" width="235" height="26" as="geometry" />
        </mxCell>
        <mxCell id="_leg18_b8WGHA4jAs8E_-160" value="" style="shape=partialRectangle;top=0;left=0;bottom=0;fillColor=none;align=left;verticalAlign=middle;spacingLeft=4;spacingRight=4;overflow=hidden;rotatable=180;points=[];portConstraint=eastwest;part=1;" vertex="1" connectable="0" parent="_leg18_b8WGHA4jAs8E_-159">
          <mxGeometry width="54" height="26" as="geometry" />
        </mxCell>
        <mxCell id="_leg18_b8WGHA4jAs8E_-161" value="ip_address" style="shape=partialRectangle;top=0;left=0;right=0;bottom=0;align=left;verticalAlign=top;spacingTop=-2;fillColor=none;spacingLeft=64;spacingRight=4;overflow=hidden;rotatable=0;points=[[0,0.5],[1,0.5]];portConstraint=eastwest;dropTarget=0;" vertex="1" parent="_leg18_b8WGHA4jAs8E_-144">
          <mxGeometry y="234" width="235" height="26" as="geometry" />
        </mxCell>
        <mxCell id="_leg18_b8WGHA4jAs8E_-162" value="" style="shape=partialRectangle;top=0;left=0;bottom=0;fillColor=none;align=left;verticalAlign=middle;spacingLeft=4;spacingRight=4;overflow=hidden;rotatable=180;points=[];portConstraint=eastwest;part=1;" vertex="1" connectable="0" parent="_leg18_b8WGHA4jAs8E_-161">
          <mxGeometry width="54" height="26" as="geometry" />
        </mxCell>
        <mxCell id="_leg18_b8WGHA4jAs8E_-163" value="INDEX" style="shape=partialRectangle;top=0;left=0;right=0;bottom=0;align=left;verticalAlign=top;spacingTop=-2;fillColor=none;spacingLeft=64;spacingRight=4;overflow=hidden;rotatable=0;points=[[0,0.5],[1,0.5]];portConstraint=eastwest;dropTarget=0;" vertex="1" parent="_leg18_b8WGHA4jAs8E_-144">
          <mxGeometry y="260" width="235" height="26" as="geometry" />
        </mxCell>
        <mxCell id="_leg18_b8WGHA4jAs8E_-164" value="" style="shape=partialRectangle;top=0;left=0;bottom=0;fillColor=none;align=left;verticalAlign=middle;spacingLeft=4;spacingRight=4;overflow=hidden;rotatable=180;points=[];portConstraint=eastwest;part=1;" vertex="1" connectable="0" parent="_leg18_b8WGHA4jAs8E_-163">
          <mxGeometry width="54" height="26" as="geometry" />
        </mxCell>
        <mxCell id="_leg18_b8WGHA4jAs8E_-165" value="INDEX" style="shape=partialRectangle;top=0;left=0;right=0;bottom=0;align=left;verticalAlign=top;spacingTop=-2;fillColor=none;spacingLeft=64;spacingRight=4;overflow=hidden;rotatable=0;points=[[0,0.5],[1,0.5]];portConstraint=eastwest;dropTarget=0;" vertex="1" parent="_leg18_b8WGHA4jAs8E_-144">
          <mxGeometry y="286" width="235" height="26" as="geometry" />
        </mxCell>
        <mxCell id="_leg18_b8WGHA4jAs8E_-166" value="" style="shape=partialRectangle;top=0;left=0;bottom=0;fillColor=none;align=left;verticalAlign=middle;spacingLeft=4;spacingRight=4;overflow=hidden;rotatable=180;points=[];portConstraint=eastwest;part=1;" vertex="1" connectable="0" parent="_leg18_b8WGHA4jAs8E_-165">
          <mxGeometry width="54" height="26" as="geometry" />
        </mxCell>
        <mxCell id="_leg18_b8WGHA4jAs8E_-167" value="INDEX" style="shape=partialRectangle;top=0;left=0;right=0;bottom=0;align=left;verticalAlign=top;spacingTop=-2;fillColor=none;spacingLeft=64;spacingRight=4;overflow=hidden;rotatable=0;points=[[0,0.5],[1,0.5]];portConstraint=eastwest;dropTarget=0;" vertex="1" parent="_leg18_b8WGHA4jAs8E_-144">
          <mxGeometry y="312" width="235" height="26" as="geometry" />
        </mxCell>
        <mxCell id="_leg18_b8WGHA4jAs8E_-168" value="" style="shape=partialRectangle;top=0;left=0;bottom=0;fillColor=none;align=left;verticalAlign=middle;spacingLeft=4;spacingRight=4;overflow=hidden;rotatable=180;points=[];portConstraint=eastwest;part=1;" vertex="1" connectable="0" parent="_leg18_b8WGHA4jAs8E_-167">
          <mxGeometry width="54" height="26" as="geometry" />
        </mxCell>
        <mxCell id="_leg18_b8WGHA4jAs8E_-169" value="INDEX" style="shape=partialRectangle;top=0;left=0;right=0;bottom=0;align=left;verticalAlign=top;spacingTop=-2;fillColor=none;spacingLeft=64;spacingRight=4;overflow=hidden;rotatable=0;points=[[0,0.5],[1,0.5]];portConstraint=eastwest;dropTarget=0;" vertex="1" parent="_leg18_b8WGHA4jAs8E_-144">
          <mxGeometry y="338" width="235" height="26" as="geometry" />
        </mxCell>
        <mxCell id="_leg18_b8WGHA4jAs8E_-170" value="" style="shape=partialRectangle;top=0;left=0;bottom=0;fillColor=none;align=left;verticalAlign=middle;spacingLeft=4;spacingRight=4;overflow=hidden;rotatable=180;points=[];portConstraint=eastwest;part=1;" vertex="1" connectable="0" parent="_leg18_b8WGHA4jAs8E_-169">
          <mxGeometry width="54" height="26" as="geometry" />
        </mxCell>
        <mxCell id="_leg18_b8WGHA4jAs8E_-171" value="registration_requests" style="swimlane;fontStyle=0;childLayout=stackLayout;horizontal=1;startSize=26;fillColor=default;horizontalStack=0;resizeParent=1;resizeLast=0;collapsible=1;marginBottom=0;swimlaneFillColor=default;align=center;" vertex="1" parent="1">
          <mxGeometry x="1733" y="40" width="241" height="546" as="geometry" />
        </mxCell>
        <mxCell id="_leg18_b8WGHA4jAs8E_-172" value="request_id" style="shape=partialRectangle;top=0;left=0;right=0;bottom=0;align=left;verticalAlign=top;spacingTop=-2;fillColor=none;spacingLeft=64;spacingRight=4;overflow=hidden;rotatable=0;points=[[0,0.5],[1,0.5]];portConstraint=eastwest;dropTarget=0;" vertex="1" parent="_leg18_b8WGHA4jAs8E_-171">
          <mxGeometry y="26" width="241" height="26" as="geometry" />
        </mxCell>
        <mxCell id="_leg18_b8WGHA4jAs8E_-173" value="" style="shape=partialRectangle;top=0;left=0;bottom=0;fillColor=none;align=left;verticalAlign=middle;spacingLeft=4;spacingRight=4;overflow=hidden;rotatable=180;points=[];portConstraint=eastwest;part=1;" vertex="1" connectable="0" parent="_leg18_b8WGHA4jAs8E_-172">
          <mxGeometry width="54" height="26" as="geometry" />
        </mxCell>
        <mxCell id="_leg18_b8WGHA4jAs8E_-174" value="email" style="shape=partialRectangle;top=0;left=0;right=0;bottom=0;align=left;verticalAlign=top;spacingTop=-2;fillColor=none;spacingLeft=64;spacingRight=4;overflow=hidden;rotatable=0;points=[[0,0.5],[1,0.5]];portConstraint=eastwest;dropTarget=0;" vertex="1" parent="_leg18_b8WGHA4jAs8E_-171">
          <mxGeometry y="52" width="241" height="26" as="geometry" />
        </mxCell>
        <mxCell id="_leg18_b8WGHA4jAs8E_-175" value="" style="shape=partialRectangle;top=0;left=0;bottom=0;fillColor=none;align=left;verticalAlign=middle;spacingLeft=4;spacingRight=4;overflow=hidden;rotatable=180;points=[];portConstraint=eastwest;part=1;" vertex="1" connectable="0" parent="_leg18_b8WGHA4jAs8E_-174">
          <mxGeometry width="54" height="26" as="geometry" />
        </mxCell>
        <mxCell id="_leg18_b8WGHA4jAs8E_-176" value="first_name" style="shape=partialRectangle;top=0;left=0;right=0;bottom=0;align=left;verticalAlign=top;spacingTop=-2;fillColor=none;spacingLeft=64;spacingRight=4;overflow=hidden;rotatable=0;points=[[0,0.5],[1,0.5]];portConstraint=eastwest;dropTarget=0;" vertex="1" parent="_leg18_b8WGHA4jAs8E_-171">
          <mxGeometry y="78" width="241" height="26" as="geometry" />
        </mxCell>
        <mxCell id="_leg18_b8WGHA4jAs8E_-177" value="" style="shape=partialRectangle;top=0;left=0;bottom=0;fillColor=none;align=left;verticalAlign=middle;spacingLeft=4;spacingRight=4;overflow=hidden;rotatable=180;points=[];portConstraint=eastwest;part=1;" vertex="1" connectable="0" parent="_leg18_b8WGHA4jAs8E_-176">
          <mxGeometry width="54" height="26" as="geometry" />
        </mxCell>
        <mxCell id="_leg18_b8WGHA4jAs8E_-178" value="last_name" style="shape=partialRectangle;top=0;left=0;right=0;bottom=0;align=left;verticalAlign=top;spacingTop=-2;fillColor=none;spacingLeft=64;spacingRight=4;overflow=hidden;rotatable=0;points=[[0,0.5],[1,0.5]];portConstraint=eastwest;dropTarget=0;" vertex="1" parent="_leg18_b8WGHA4jAs8E_-171">
          <mxGeometry y="104" width="241" height="26" as="geometry" />
        </mxCell>
        <mxCell id="_leg18_b8WGHA4jAs8E_-179" value="" style="shape=partialRectangle;top=0;left=0;bottom=0;fillColor=none;align=left;verticalAlign=middle;spacingLeft=4;spacingRight=4;overflow=hidden;rotatable=180;points=[];portConstraint=eastwest;part=1;" vertex="1" connectable="0" parent="_leg18_b8WGHA4jAs8E_-178">
          <mxGeometry width="54" height="26" as="geometry" />
        </mxCell>
        <mxCell id="_leg18_b8WGHA4jAs8E_-180" value="phone" style="shape=partialRectangle;top=0;left=0;right=0;bottom=0;align=left;verticalAlign=top;spacingTop=-2;fillColor=none;spacingLeft=64;spacingRight=4;overflow=hidden;rotatable=0;points=[[0,0.5],[1,0.5]];portConstraint=eastwest;dropTarget=0;" vertex="1" parent="_leg18_b8WGHA4jAs8E_-171">
          <mxGeometry y="130" width="241" height="26" as="geometry" />
        </mxCell>
        <mxCell id="_leg18_b8WGHA4jAs8E_-181" value="" style="shape=partialRectangle;top=0;left=0;bottom=0;fillColor=none;align=left;verticalAlign=middle;spacingLeft=4;spacingRight=4;overflow=hidden;rotatable=180;points=[];portConstraint=eastwest;part=1;" vertex="1" connectable="0" parent="_leg18_b8WGHA4jAs8E_-180">
          <mxGeometry width="54" height="26" as="geometry" />
        </mxCell>
        <mxCell id="_leg18_b8WGHA4jAs8E_-182" value="user_type" style="shape=partialRectangle;top=0;left=0;right=0;bottom=0;align=left;verticalAlign=top;spacingTop=-2;fillColor=none;spacingLeft=64;spacingRight=4;overflow=hidden;rotatable=0;points=[[0,0.5],[1,0.5]];portConstraint=eastwest;dropTarget=0;" vertex="1" parent="_leg18_b8WGHA4jAs8E_-171">
          <mxGeometry y="156" width="241" height="26" as="geometry" />
        </mxCell>
        <mxCell id="_leg18_b8WGHA4jAs8E_-183" value="" style="shape=partialRectangle;top=0;left=0;bottom=0;fillColor=none;align=left;verticalAlign=middle;spacingLeft=4;spacingRight=4;overflow=hidden;rotatable=180;points=[];portConstraint=eastwest;part=1;" vertex="1" connectable="0" parent="_leg18_b8WGHA4jAs8E_-182">
          <mxGeometry width="54" height="26" as="geometry" />
        </mxCell>
        <mxCell id="_leg18_b8WGHA4jAs8E_-184" value="roll_number" style="shape=partialRectangle;top=0;left=0;right=0;bottom=0;align=left;verticalAlign=top;spacingTop=-2;fillColor=none;spacingLeft=64;spacingRight=4;overflow=hidden;rotatable=0;points=[[0,0.5],[1,0.5]];portConstraint=eastwest;dropTarget=0;" vertex="1" parent="_leg18_b8WGHA4jAs8E_-171">
          <mxGeometry y="182" width="241" height="26" as="geometry" />
        </mxCell>
        <mxCell id="_leg18_b8WGHA4jAs8E_-185" value="" style="shape=partialRectangle;top=0;left=0;bottom=0;fillColor=none;align=left;verticalAlign=middle;spacingLeft=4;spacingRight=4;overflow=hidden;rotatable=180;points=[];portConstraint=eastwest;part=1;" vertex="1" connectable="0" parent="_leg18_b8WGHA4jAs8E_-184">
          <mxGeometry width="54" height="26" as="geometry" />
        </mxCell>
        <mxCell id="_leg18_b8WGHA4jAs8E_-186" value="admission_year" style="shape=partialRectangle;top=0;left=0;right=0;bottom=0;align=left;verticalAlign=top;spacingTop=-2;fillColor=none;spacingLeft=64;spacingRight=4;overflow=hidden;rotatable=0;points=[[0,0.5],[1,0.5]];portConstraint=eastwest;dropTarget=0;" vertex="1" parent="_leg18_b8WGHA4jAs8E_-171">
          <mxGeometry y="208" width="241" height="26" as="geometry" />
        </mxCell>
        <mxCell id="_leg18_b8WGHA4jAs8E_-187" value="" style="shape=partialRectangle;top=0;left=0;bottom=0;fillColor=none;align=left;verticalAlign=middle;spacingLeft=4;spacingRight=4;overflow=hidden;rotatable=180;points=[];portConstraint=eastwest;part=1;" vertex="1" connectable="0" parent="_leg18_b8WGHA4jAs8E_-186">
          <mxGeometry width="54" height="26" as="geometry" />
        </mxCell>
        <mxCell id="_leg18_b8WGHA4jAs8E_-188" value="faculty_role" style="shape=partialRectangle;top=0;left=0;right=0;bottom=0;align=left;verticalAlign=top;spacingTop=-2;fillColor=none;spacingLeft=64;spacingRight=4;overflow=hidden;rotatable=0;points=[[0,0.5],[1,0.5]];portConstraint=eastwest;dropTarget=0;" vertex="1" parent="_leg18_b8WGHA4jAs8E_-171">
          <mxGeometry y="234" width="241" height="26" as="geometry" />
        </mxCell>
        <mxCell id="_leg18_b8WGHA4jAs8E_-189" value="" style="shape=partialRectangle;top=0;left=0;bottom=0;fillColor=none;align=left;verticalAlign=middle;spacingLeft=4;spacingRight=4;overflow=hidden;rotatable=180;points=[];portConstraint=eastwest;part=1;" vertex="1" connectable="0" parent="_leg18_b8WGHA4jAs8E_-188">
          <mxGeometry width="54" height="26" as="geometry" />
        </mxCell>
        <mxCell id="_leg18_b8WGHA4jAs8E_-190" value="qualifications" style="shape=partialRectangle;top=0;left=0;right=0;bottom=0;align=left;verticalAlign=top;spacingTop=-2;fillColor=none;spacingLeft=64;spacingRight=4;overflow=hidden;rotatable=0;points=[[0,0.5],[1,0.5]];portConstraint=eastwest;dropTarget=0;" vertex="1" parent="_leg18_b8WGHA4jAs8E_-171">
          <mxGeometry y="260" width="241" height="26" as="geometry" />
        </mxCell>
        <mxCell id="_leg18_b8WGHA4jAs8E_-191" value="" style="shape=partialRectangle;top=0;left=0;bottom=0;fillColor=none;align=left;verticalAlign=middle;spacingLeft=4;spacingRight=4;overflow=hidden;rotatable=180;points=[];portConstraint=eastwest;part=1;" vertex="1" connectable="0" parent="_leg18_b8WGHA4jAs8E_-190">
          <mxGeometry width="54" height="26" as="geometry" />
        </mxCell>
        <mxCell id="_leg18_b8WGHA4jAs8E_-192" value="status" style="shape=partialRectangle;top=0;left=0;right=0;bottom=0;align=left;verticalAlign=top;spacingTop=-2;fillColor=none;spacingLeft=64;spacingRight=4;overflow=hidden;rotatable=0;points=[[0,0.5],[1,0.5]];portConstraint=eastwest;dropTarget=0;" vertex="1" parent="_leg18_b8WGHA4jAs8E_-171">
          <mxGeometry y="286" width="241" height="26" as="geometry" />
        </mxCell>
        <mxCell id="_leg18_b8WGHA4jAs8E_-193" value="" style="shape=partialRectangle;top=0;left=0;bottom=0;fillColor=none;align=left;verticalAlign=middle;spacingLeft=4;spacingRight=4;overflow=hidden;rotatable=180;points=[];portConstraint=eastwest;part=1;" vertex="1" connectable="0" parent="_leg18_b8WGHA4jAs8E_-192">
          <mxGeometry width="54" height="26" as="geometry" />
        </mxCell>
        <mxCell id="_leg18_b8WGHA4jAs8E_-194" value="approved_by_type" style="shape=partialRectangle;top=0;left=0;right=0;bottom=0;align=left;verticalAlign=top;spacingTop=-2;fillColor=none;spacingLeft=64;spacingRight=4;overflow=hidden;rotatable=0;points=[[0,0.5],[1,0.5]];portConstraint=eastwest;dropTarget=0;" vertex="1" parent="_leg18_b8WGHA4jAs8E_-171">
          <mxGeometry y="312" width="241" height="26" as="geometry" />
        </mxCell>
        <mxCell id="_leg18_b8WGHA4jAs8E_-195" value="" style="shape=partialRectangle;top=0;left=0;bottom=0;fillColor=none;align=left;verticalAlign=middle;spacingLeft=4;spacingRight=4;overflow=hidden;rotatable=180;points=[];portConstraint=eastwest;part=1;" vertex="1" connectable="0" parent="_leg18_b8WGHA4jAs8E_-194">
          <mxGeometry width="54" height="26" as="geometry" />
        </mxCell>
        <mxCell id="_leg18_b8WGHA4jAs8E_-196" value="approved_by_id" style="shape=partialRectangle;top=0;left=0;right=0;bottom=0;align=left;verticalAlign=top;spacingTop=-2;fillColor=none;spacingLeft=64;spacingRight=4;overflow=hidden;rotatable=0;points=[[0,0.5],[1,0.5]];portConstraint=eastwest;dropTarget=0;" vertex="1" parent="_leg18_b8WGHA4jAs8E_-171">
          <mxGeometry y="338" width="241" height="26" as="geometry" />
        </mxCell>
        <mxCell id="_leg18_b8WGHA4jAs8E_-197" value="" style="shape=partialRectangle;top=0;left=0;bottom=0;fillColor=none;align=left;verticalAlign=middle;spacingLeft=4;spacingRight=4;overflow=hidden;rotatable=180;points=[];portConstraint=eastwest;part=1;" vertex="1" connectable="0" parent="_leg18_b8WGHA4jAs8E_-196">
          <mxGeometry width="54" height="26" as="geometry" />
        </mxCell>
        <mxCell id="_leg18_b8WGHA4jAs8E_-198" value="rejection_reason" style="shape=partialRectangle;top=0;left=0;right=0;bottom=0;align=left;verticalAlign=top;spacingTop=-2;fillColor=none;spacingLeft=64;spacingRight=4;overflow=hidden;rotatable=0;points=[[0,0.5],[1,0.5]];portConstraint=eastwest;dropTarget=0;" vertex="1" parent="_leg18_b8WGHA4jAs8E_-171">
          <mxGeometry y="364" width="241" height="26" as="geometry" />
        </mxCell>
        <mxCell id="_leg18_b8WGHA4jAs8E_-199" value="" style="shape=partialRectangle;top=0;left=0;bottom=0;fillColor=none;align=left;verticalAlign=middle;spacingLeft=4;spacingRight=4;overflow=hidden;rotatable=180;points=[];portConstraint=eastwest;part=1;" vertex="1" connectable="0" parent="_leg18_b8WGHA4jAs8E_-198">
          <mxGeometry width="54" height="26" as="geometry" />
        </mxCell>
        <mxCell id="_leg18_b8WGHA4jAs8E_-200" value="processed_at" style="shape=partialRectangle;top=0;left=0;right=0;bottom=0;align=left;verticalAlign=top;spacingTop=-2;fillColor=none;spacingLeft=64;spacingRight=4;overflow=hidden;rotatable=0;points=[[0,0.5],[1,0.5]];portConstraint=eastwest;dropTarget=0;" vertex="1" parent="_leg18_b8WGHA4jAs8E_-171">
          <mxGeometry y="390" width="241" height="26" as="geometry" />
        </mxCell>
        <mxCell id="_leg18_b8WGHA4jAs8E_-201" value="" style="shape=partialRectangle;top=0;left=0;bottom=0;fillColor=none;align=left;verticalAlign=middle;spacingLeft=4;spacingRight=4;overflow=hidden;rotatable=180;points=[];portConstraint=eastwest;part=1;" vertex="1" connectable="0" parent="_leg18_b8WGHA4jAs8E_-200">
          <mxGeometry width="54" height="26" as="geometry" />
        </mxCell>
        <mxCell id="_leg18_b8WGHA4jAs8E_-202" value="created_at" style="shape=partialRectangle;top=0;left=0;right=0;bottom=0;align=left;verticalAlign=top;spacingTop=-2;fillColor=none;spacingLeft=64;spacingRight=4;overflow=hidden;rotatable=0;points=[[0,0.5],[1,0.5]];portConstraint=eastwest;dropTarget=0;" vertex="1" parent="_leg18_b8WGHA4jAs8E_-171">
          <mxGeometry y="416" width="241" height="26" as="geometry" />
        </mxCell>
        <mxCell id="_leg18_b8WGHA4jAs8E_-203" value="" style="shape=partialRectangle;top=0;left=0;bottom=0;fillColor=none;align=left;verticalAlign=middle;spacingLeft=4;spacingRight=4;overflow=hidden;rotatable=180;points=[];portConstraint=eastwest;part=1;" vertex="1" connectable="0" parent="_leg18_b8WGHA4jAs8E_-202">
          <mxGeometry width="54" height="26" as="geometry" />
        </mxCell>
        <mxCell id="_leg18_b8WGHA4jAs8E_-204" value="INDEX" style="shape=partialRectangle;top=0;left=0;right=0;bottom=0;align=left;verticalAlign=top;spacingTop=-2;fillColor=none;spacingLeft=64;spacingRight=4;overflow=hidden;rotatable=0;points=[[0,0.5],[1,0.5]];portConstraint=eastwest;dropTarget=0;" vertex="1" parent="_leg18_b8WGHA4jAs8E_-171">
          <mxGeometry y="442" width="241" height="26" as="geometry" />
        </mxCell>
        <mxCell id="_leg18_b8WGHA4jAs8E_-205" value="" style="shape=partialRectangle;top=0;left=0;bottom=0;fillColor=none;align=left;verticalAlign=middle;spacingLeft=4;spacingRight=4;overflow=hidden;rotatable=180;points=[];portConstraint=eastwest;part=1;" vertex="1" connectable="0" parent="_leg18_b8WGHA4jAs8E_-204">
          <mxGeometry width="54" height="26" as="geometry" />
        </mxCell>
        <mxCell id="_leg18_b8WGHA4jAs8E_-206" value="INDEX" style="shape=partialRectangle;top=0;left=0;right=0;bottom=0;align=left;verticalAlign=top;spacingTop=-2;fillColor=none;spacingLeft=64;spacingRight=4;overflow=hidden;rotatable=0;points=[[0,0.5],[1,0.5]];portConstraint=eastwest;dropTarget=0;" vertex="1" parent="_leg18_b8WGHA4jAs8E_-171">
          <mxGeometry y="468" width="241" height="26" as="geometry" />
        </mxCell>
        <mxCell id="_leg18_b8WGHA4jAs8E_-207" value="" style="shape=partialRectangle;top=0;left=0;bottom=0;fillColor=none;align=left;verticalAlign=middle;spacingLeft=4;spacingRight=4;overflow=hidden;rotatable=180;points=[];portConstraint=eastwest;part=1;" vertex="1" connectable="0" parent="_leg18_b8WGHA4jAs8E_-206">
          <mxGeometry width="54" height="26" as="geometry" />
        </mxCell>
        <mxCell id="_leg18_b8WGHA4jAs8E_-208" value="INDEX" style="shape=partialRectangle;top=0;left=0;right=0;bottom=0;align=left;verticalAlign=top;spacingTop=-2;fillColor=none;spacingLeft=64;spacingRight=4;overflow=hidden;rotatable=0;points=[[0,0.5],[1,0.5]];portConstraint=eastwest;dropTarget=0;" vertex="1" parent="_leg18_b8WGHA4jAs8E_-171">
          <mxGeometry y="494" width="241" height="26" as="geometry" />
        </mxCell>
        <mxCell id="_leg18_b8WGHA4jAs8E_-209" value="" style="shape=partialRectangle;top=0;left=0;bottom=0;fillColor=none;align=left;verticalAlign=middle;spacingLeft=4;spacingRight=4;overflow=hidden;rotatable=180;points=[];portConstraint=eastwest;part=1;" vertex="1" connectable="0" parent="_leg18_b8WGHA4jAs8E_-208">
          <mxGeometry width="54" height="26" as="geometry" />
        </mxCell>
        <mxCell id="_leg18_b8WGHA4jAs8E_-210" value="INDEX" style="shape=partialRectangle;top=0;left=0;right=0;bottom=0;align=left;verticalAlign=top;spacingTop=-2;fillColor=none;spacingLeft=64;spacingRight=4;overflow=hidden;rotatable=0;points=[[0,0.5],[1,0.5]];portConstraint=eastwest;dropTarget=0;" vertex="1" parent="_leg18_b8WGHA4jAs8E_-171">
          <mxGeometry y="520" width="241" height="26" as="geometry" />
        </mxCell>
        <mxCell id="_leg18_b8WGHA4jAs8E_-211" value="" style="shape=partialRectangle;top=0;left=0;bottom=0;fillColor=none;align=left;verticalAlign=middle;spacingLeft=4;spacingRight=4;overflow=hidden;rotatable=180;points=[];portConstraint=eastwest;part=1;" vertex="1" connectable="0" parent="_leg18_b8WGHA4jAs8E_-210">
          <mxGeometry width="54" height="26" as="geometry" />
        </mxCell>
      </root>
    </mxGraphModel>
  </diagram>
</mxfile>
